<svg width="784" height="540" viewBox="0 0 784 540" fill="none" xmlns="http://www.w3.org/2000/svg">
<path d="M680.4 360.2H778.4" stroke="white" stroke-width="7" stroke-miterlimit="10" stroke-linecap="round" stroke-linejoin="round"/>
<path d="M672.1 300.8L712.2 293.9" stroke="white" stroke-width="7" stroke-miterlimit="10" stroke-linecap="round" stroke-linejoin="round"/>
<path d="M721.9 291.6L734.2 289.4" stroke="white" stroke-width="7" stroke-miterlimit="10" stroke-linecap="round" stroke-linejoin="round"/>
<path d="M646 246.9L734.6 205" stroke="white" stroke-width="7" stroke-miterlimit="10" stroke-linecap="round" stroke-linejoin="round"/>
<path d="M613.1 196.8L646.4 173.4" stroke="white" stroke-width="7" stroke-miterlimit="10" stroke-linecap="round" stroke-linejoin="round"/>
<path d="M654.2 167.1L664.3 159.9" stroke="white" stroke-width="7" stroke-miterlimit="10" stroke-linecap="round" stroke-linejoin="round"/>
<path d="M565.3 157.6L629.4 83.3999" stroke="white" stroke-width="7" stroke-miterlimit="10" stroke-linecap="round" stroke-linejoin="round"/>
<path d="M515 125L536 90.2002" stroke="white" stroke-width="7" stroke-miterlimit="10" stroke-linecap="round" stroke-linejoin="round"/>
<path d="M540.6 81.3001L546.9 70.6001" stroke="white" stroke-width="7" stroke-miterlimit="10" stroke-linecap="round" stroke-linejoin="round"/>
<path d="M458.4 100.7L474.4 4" stroke="white" stroke-width="7" stroke-miterlimit="10" stroke-linecap="round" stroke-linejoin="round"/>
<path d="M398.2 58.5L398.4 99.1" stroke="white" stroke-width="7" stroke-miterlimit="10" stroke-linecap="round" stroke-linejoin="round"/>
<path d="M397.5 48.5L397.3 36" stroke="white" stroke-width="7" stroke-miterlimit="10" stroke-linecap="round" stroke-linejoin="round"/>
<path d="M333.3 105L321.7 7.7002" stroke="white" stroke-width="7" stroke-miterlimit="10" stroke-linecap="round" stroke-linejoin="round"/>
<path d="M275.3 120.2L263.7 81.2998" stroke="white" stroke-width="7" stroke-miterlimit="10" stroke-linecap="round" stroke-linejoin="round"/>
<path d="M260.2 71.9L256.7 60" stroke="white" stroke-width="7" stroke-miterlimit="10" stroke-linecap="round" stroke-linejoin="round"/>
<path d="M220.3 149.6L160 72.3999" stroke="white" stroke-width="7" stroke-miterlimit="10" stroke-linecap="round" stroke-linejoin="round"/>
<path d="M178.6 192.7L148.5 165.4" stroke="white" stroke-width="7" stroke-miterlimit="10" stroke-linecap="round" stroke-linejoin="round"/>
<path d="M140.6 159.1L131.4 150.8" stroke="white" stroke-width="7" stroke-miterlimit="10" stroke-linecap="round" stroke-linejoin="round"/>
<path d="M102 355.4H4" stroke="white" stroke-width="7" stroke-miterlimit="10" stroke-linecap="round" stroke-linejoin="round"/>
<path d="M136.6 242.2L50.3 195.8" stroke="white" stroke-width="7" stroke-miterlimit="10" stroke-linecap="round" stroke-linejoin="round"/>
<path d="M116.2 297.3L77.2 285.8" stroke="white" stroke-width="7" stroke-miterlimit="10" stroke-linecap="round" stroke-linejoin="round"/>
<path d="M67.4 283.6L55.5 280.2" stroke="white" stroke-width="7" stroke-miterlimit="10" stroke-linecap="round" stroke-linejoin="round"/>
<path d="M406.4 241.5C409.3 211.7 421.9 199.2 440.2 196.6C418.8 195.4 408.1 179.9 406.4 152.4" stroke="white" stroke-width="7" stroke-miterlimit="10" stroke-linecap="round" stroke-linejoin="round"/>
<path d="M406 152.4C404.2 179.8 393.5 195.3 372.2 196.6C390.5 199.2 403.2 211.7 406 241.5" stroke="white" stroke-width="7" stroke-miterlimit="10" stroke-linecap="round" stroke-linejoin="round"/>
<path d="M313.6 412.7C277.2 412.7 247.7 382.1 247.7 344.4C247.7 306.7 277.2 276.1 313.6 276.1C343.5 276.1 368.7 296.7 376.8 325C369.3 281 330.5 247.6 284.2 248.5C234.5 249.5 194.2 290.2 193.9 340C193.5 391.2 234.9 432.8 286 432.8C321.1 432.8 365.7 423.8 390.6 373.4C364.3 407.8 334.6 412.7 313.6 412.7Z" stroke="white" stroke-width="7" stroke-miterlimit="10" stroke-linecap="round" stroke-linejoin="round"/>
<path d="M167.9 430.9C188 427.9 194 395.3 194.1 350.8" stroke="white" stroke-width="7" stroke-miterlimit="10" stroke-linecap="round" stroke-linejoin="round"/>
<path d="M435.4 358.8C465.1 470.6 639 443 614.8 322.2C601 263.5 540.3 233.2 482.3 253.2C454 263.6 431.6 285 416.7 314C408.4 328.5 400.8 349.9 388.4 377.5" stroke="white" stroke-width="7" stroke-miterlimit="10" stroke-linecap="round" stroke-linejoin="round"/>
<path d="M478.6 417.5L465.2 441.4" stroke="white" stroke-width="7" stroke-miterlimit="10" stroke-linecap="round" stroke-linejoin="round"/>
<path d="M579.4 416.8L595.8 438.8" stroke="white" stroke-width="7" stroke-miterlimit="10" stroke-linecap="round" stroke-linejoin="round"/>
<path d="M530.4 432.7L530.2 460.1" stroke="white" stroke-width="7" stroke-miterlimit="10" stroke-linecap="round" stroke-linejoin="round"/>
<path d="M500.4 428.1L495.4 455" stroke="white" stroke-width="7" stroke-miterlimit="10" stroke-linecap="round" stroke-linejoin="round"/>
<path d="M555.3 428.7L564.6 454.5" stroke="white" stroke-width="7" stroke-miterlimit="10" stroke-linecap="round" stroke-linejoin="round"/>
<path d="M9.70001 499.3H9.50001C9.50001 498.2 9.00001 497.3 8.30001 496.5C7.50001 495.7 6.60001 495.3 5.50001 495.3H4.70001V494.7H9.80001V499.3H9.70001ZM9.70001 534.4V539H4.70001V538.4H5.50001C6.60001 538.4 7.50001 538 8.30001 537.2C9.10001 536.4 9.50001 535.5 9.50001 534.4H9.70001ZM13.7 494.7V539H9.60001V494.7H13.7ZM13.5 499.3V494.7H18.6V495.3C18.6 495.3 18.3 495.3 17.8 495.3C16.7 495.3 15.8 495.7 15 496.5C14.2 497.3 13.8 498.2 13.8 499.3H13.5ZM13.5 534.4H13.7C13.7 535.5 14.2 536.4 14.9 537.2C15.7 538 16.6 538.4 17.7 538.4C18.2 538.4 18.5 538.4 18.5 538.4V539H13.4V534.4H13.5Z" fill="white"/>
<path d="M36.7 534.5V539H31.4V538.4C32.2 538.4 32.6 538.4 32.6 538.4C33.7 538.4 34.6 538 35.3 537.3C36.1 536.5 36.4 535.6 36.4 534.6H36.7V534.5ZM36.6 493.7L39.4 497.2L39.5 538.9H36.6V501.6C36.6 499.4 36.4 496.8 36 493.7H36.6ZM36.6 493.7L73.3 533L73.9 539.9L37.1 500.7L36.6 493.7ZM39.4 534.5C39.4 535.6 39.8 536.5 40.5 537.2C41.3 538 42.2 538.3 43.2 538.3C43.2 538.3 43.6 538.3 44.4 538.3V538.9H39.2V534.4H39.4V534.5ZM65.9 494.7H71.1V499.2H71C71 498.1 70.6 497.2 69.8 496.4C69.1 495.7 68.1 495.3 67 495.3C66.2 495.3 65.8 495.3 65.8 495.3V494.7H65.9ZM73.9 494.7V531.8C73.9 533.1 73.9 534.4 74 535.7C74.1 536.9 74.2 538.3 74.4 539.9H73.8L71 536.5V494.7H73.9ZM78.9 494.7V495.3H77.8C76.7 495.3 75.8 495.7 75.1 496.4C74.3 497.1 73.9 498.1 73.9 499.2H73.7V494.7H78.9Z" fill="white"/>
<path d="M96.3 499.3H96.1C96.1 498.2 95.7 497.3 94.9 496.5C94.1 495.7 93.1 495.3 92.1 495.3H91.3L91.2 494.7H96.3V499.3ZM96.3 534.4V539H91.2V538.4H92C93.1 538.4 94 538 94.8 537.2C95.6 536.4 96 535.5 96 534.4H96.3ZM100.3 494.7V539H96.2V494.7H100.3ZM117.3 494.7V496.7H100V494.7H117.3ZM114.6 516.2V518.1H100.1V516.2H114.6ZM100.1 534.4H100.3C100.3 535.5 100.8 536.4 101.5 537.2C102.3 538 103.2 538.4 104.3 538.4C104.8 538.4 105.1 538.4 105.1 538.4V539H100V534.4H100.1ZM117.3 493.6V495.4L109.6 494.7C110.5 494.7 111.5 494.6 112.5 494.5C113.5 494.4 114.5 494.2 115.4 494.1C116.3 493.9 117 493.7 117.3 493.6ZM114.6 512.2V516.4H110.9V516.3C111.7 516.3 112.5 515.9 113.1 515.3C113.7 514.7 114 514 114 513.1V512.2H114.6ZM114.6 518V522.2H114V521.3C114 520.5 113.7 519.7 113.1 519.1C112.5 518.5 111.8 518.2 110.9 518.2V518H114.6ZM117.3 496.5V500.7H116.7V499.8C116.7 499 116.4 498.2 115.8 497.6C115.2 497 114.5 496.7 113.6 496.7V496.5H117.3Z" fill="white"/>
<path d="M136.9 499.3H136.7C136.7 498.2 136.2 497.3 135.5 496.5C134.7 495.7 133.8 495.3 132.7 495.3H131.9V494.7H137V499.3H136.9ZM136.9 534.4V539H131.8V538.4H132.6C133.7 538.4 134.6 538 135.4 537.2C136.2 536.4 136.6 535.5 136.6 534.4H136.9ZM140.8 494.7V539H136.7V494.7H140.8ZM140.6 499.3V494.7H145.7V495.3C145.7 495.3 145.4 495.3 144.9 495.3C143.8 495.3 142.9 495.7 142.1 496.5C141.3 497.3 140.9 498.2 140.9 499.3H140.6ZM140.6 534.4H140.8C140.8 535.5 141.3 536.4 142 537.2C142.8 538 143.7 538.4 144.8 538.4C145.3 538.4 145.6 538.4 145.6 538.4V539H140.5V534.4H140.6Z" fill="white"/>
<path d="M163.8 534.5V539H158.5V538.4C159.3 538.4 159.7 538.4 159.7 538.4C160.8 538.4 161.7 538 162.4 537.3C163.2 536.5 163.5 535.6 163.5 534.6H163.8V534.5ZM163.7 493.7L166.5 497.2L166.6 538.9H163.7V501.6C163.7 499.4 163.5 496.8 163.1 493.7H163.7ZM163.7 493.7L200.5 532.9L201.1 539.8L164.3 500.6L163.7 493.7ZM166.5 534.5C166.5 535.6 166.9 536.5 167.6 537.2C168.4 538 169.3 538.3 170.3 538.3C170.3 538.3 170.7 538.3 171.5 538.3V538.9H166.3V534.4H166.5V534.5ZM193.1 494.7H198.3V499.2H198.2C198.2 498.1 197.8 497.2 197 496.4C196.3 495.7 195.3 495.3 194.2 495.3C193.4 495.3 193 495.3 193 495.3V494.7H193.1ZM201 494.7V531.8C201 533.1 201 534.4 201.1 535.7C201.2 536.9 201.3 538.3 201.5 539.9H201L198.2 536.5V494.7H201ZM206.1 494.7V495.3H205C203.9 495.3 203 495.7 202.3 496.4C201.5 497.1 201.1 498.1 201.1 499.2H200.9V494.7H206.1Z" fill="white"/>
<path d="M223.5 499.3H223.3C223.3 498.2 222.8 497.3 222.1 496.5C221.3 495.7 220.4 495.3 219.3 495.3H218.5V494.7H223.6V499.3H223.5ZM223.5 534.4V539H218.4V538.4H219.2C220.3 538.4 221.2 538 222 537.2C222.8 536.4 223.2 535.5 223.2 534.4H223.5ZM227.4 494.7V539H223.3V494.7H227.4ZM227.2 499.3V494.7H232.3V495.3C232.3 495.3 232 495.3 231.5 495.3C230.4 495.3 229.5 495.7 228.7 496.5C227.9 497.3 227.5 498.2 227.5 499.3H227.2ZM227.2 534.4H227.4C227.4 535.5 227.9 536.4 228.6 537.2C229.4 538 230.3 538.4 231.4 538.4C231.9 538.4 232.2 538.4 232.2 538.4V539H227.1V534.4H227.2Z" fill="white"/>
<path d="M243.6 493.5C244 493.7 244.7 493.8 245.5 494C246.4 494.2 247.3 494.3 248.4 494.4C249.5 494.5 250.4 494.6 251.3 494.6L243.6 495.3V493.5ZM280.2 494.6V496.5H243.6V494.6H280.2ZM248 496.3V496.5C246.9 496.5 246.1 496.9 245.3 497.6C244.6 498.3 244.2 499.2 244.2 500.3V501.4L243.6 501.5V496.4H248V496.3ZM260 534.4V539H255V538.4H255.8C256.9 538.4 257.8 538 258.6 537.2C259.4 536.4 259.8 535.5 259.8 534.4H260ZM264 494.9V539H259.9V494.9H264ZM263.8 534.4H264C264 535.5 264.5 536.4 265.2 537.2C266 538 266.9 538.4 268 538.4H268.8V539H263.7V534.4H263.8ZM280.2 493.5V495.3L272.5 494.6C273.4 494.6 274.4 494.5 275.4 494.4C276.4 494.3 277.4 494.1 278.3 494C279.2 493.8 279.8 493.7 280.2 493.5ZM280.2 496.3V501.4L279.6 501.3V500.2C279.6 499.1 279.2 498.3 278.5 497.5C277.8 496.8 276.9 496.4 275.9 496.4V496.2H280.2V496.3Z" fill="white"/>
<path d="M292.4 534.4C292.1 535.2 292.1 536 292.3 536.6C292.5 537.2 292.9 537.6 293.3 538C293.8 538.3 294.3 538.5 294.8 538.5H295.4V539.1H282.7V538.5H283.3C284.3 538.5 285.3 538.2 286.3 537.6C287.3 537 288.2 536 288.9 534.5H292.4V534.4ZM306 493.8L306.6 498.2L290.7 538.7H286.9L303.1 500.2C303.6 499.1 304 498.2 304.3 497.5C304.6 496.7 304.9 496 305.1 495.3C305.3 494.6 305.4 494.1 305.4 493.7H306V493.8ZM314.9 521.7V523.6H295.1V521.7H314.9ZM306 493.8L324.7 538.6H319.3L304.7 499.8L306 493.8ZM317.8 534.4H323C323.6 535.8 324.5 536.9 325.5 537.5C326.6 538.1 327.6 538.4 328.5 538.4H329V539H314.8V538.4H315.4C316.2 538.4 316.9 538.1 317.6 537.4C318.2 536.6 318.3 535.6 317.8 534.4Z" fill="white"/>
<path d="M372.7 493.8C373.4 493.8 374.1 493.8 374.9 493.9C375.7 494 376.4 494.1 377.2 494.2C377.9 494.3 378.6 494.5 379.2 494.6C379.8 494.7 380.3 494.9 380.6 495.1V502.1H380C380 500.1 379.3 498.5 377.9 497.3C376.5 496.1 374.8 495.6 372.8 495.6C370.5 495.6 368.6 496.3 367.2 497.8C365.8 499.3 365 501 365 502.9C365 503.7 365.2 504.6 365.5 505.7C365.9 506.8 366.5 507.8 367.5 508.7L380 520.2C381.3 521.4 382.1 522.6 382.5 524C382.9 525.3 383.1 526.7 383.1 527.9C383.1 531.4 382 534.2 379.9 536.4C377.8 538.6 374.9 539.7 371.3 539.7C370.3 539.7 369.1 539.6 367.7 539.4C366.3 539.2 365 538.8 363.7 538.3C362.4 537.8 361.3 537.1 360.5 536.2C360.4 535.5 360.3 534.7 360.3 533.7C360.3 532.7 360.4 531.6 360.6 530.5C360.8 529.4 361 528.4 361.3 527.4H361.9C361.7 529.6 362 531.4 362.7 533C363.5 534.6 364.6 535.8 366 536.6C367.4 537.4 369.1 537.8 371 537.7C373.3 537.6 375.3 536.8 377 535.3C378.7 533.8 379.5 531.8 379.5 529.3C379.5 528.1 379.3 527 378.9 526C378.5 525 377.9 524.2 377.1 523.4L365 512.3C363.7 511.1 362.8 509.8 362.3 508.4C361.8 507 361.5 505.7 361.5 504.4C361.5 502.6 361.9 500.9 362.8 499.3C363.6 497.7 364.9 496.3 366.6 495.3C368.3 494.3 370.3 493.8 372.7 493.8ZM380.6 494.4V495.7H375.8V494.4H380.6Z" fill="white"/>
<path d="M402.1 499.3H401.9C401.9 498.2 401.5 497.3 400.7 496.5C399.9 495.7 398.9 495.3 397.9 495.3H397.1L397 494.7H402.1V499.3ZM402.1 534.4V539H397V538.4H397.8C398.9 538.4 399.8 538 400.6 537.2C401.4 536.4 401.8 535.5 401.8 534.4H402.1ZM406 494.7V539H401.9V494.7H406ZM423.1 494.7V496.7H405.8V494.7H423.1ZM420.3 516.2V518.1H405.8V516.2H420.3ZM423.1 537V539H405.8V537H423.1ZM426.9 528.7L423.2 538.9H412.7L415 536.9C417.2 536.9 419.1 536.6 420.5 535.9C421.9 535.2 423.1 534.2 423.9 533C424.8 531.7 425.6 530.3 426.2 528.7H426.9ZM423.1 493.6V495.4L415.4 494.7C416.3 494.7 417.3 494.6 418.3 494.5C419.3 494.4 420.3 494.2 421.2 494.1C422 493.9 422.7 493.7 423.1 493.6ZM420.3 512.2V516.4H416.6V516.3C417.4 516.3 418.2 515.9 418.8 515.3C419.4 514.7 419.7 514 419.7 513.1V512.2H420.3ZM420.3 518V522.2H419.7V521.3C419.7 520.5 419.4 519.7 418.8 519.1C418.2 518.5 417.5 518.2 416.6 518.2V518H420.3ZM423.1 496.5V501.6H422.5V500.5C422.5 499.5 422.1 498.6 421.4 497.9C420.7 497.2 419.8 496.8 418.7 496.7V496.6H423.1V496.5Z" fill="white"/>
<path d="M444.2 499.3H444C444 498.2 443.5 497.3 442.8 496.5C442 495.7 441.1 495.3 440 495.3H439.2V494.7H444.3V499.3H444.2ZM444.2 534.4V539H439.1V538.4H439.9C441 538.4 441.9 538 442.7 537.2C443.5 536.4 443.9 535.5 443.9 534.4H444.2ZM448.2 494.7V539H444.1V494.7H448.2ZM456.3 494.7C458.2 494.7 459.9 495 461.5 495.5C463 496 464.3 496.8 465.4 497.9C466.5 498.9 467.3 500.2 467.8 501.6C468.3 503 468.7 504.7 468.7 506.6C468.7 508.6 468.2 510.6 467.3 512.4C466.4 514.3 465.1 515.8 463.4 516.9C461.8 518.1 460 518.6 457.9 518.6C458.6 518.9 459.4 519.5 460.2 520.4C461 521.3 461.8 522.2 462.4 523C463.5 524.6 464.5 526.1 465.4 527.2C466.3 528.4 467.1 529.5 468 530.7C468.9 531.9 469.6 532.7 470.3 533.4C471.1 534.3 472 535.2 472.8 535.9C473.6 536.6 474.6 537.2 475.6 537.6C476.6 538 477.7 538.2 478.9 538.2V538.8H475.4C473.5 538.8 471.8 538.5 470.4 537.9C469 537.3 467.8 536.6 466.8 535.7C465.8 534.8 465 534 464.3 533.2C464.2 533 463.8 532.5 463.3 531.7C462.7 530.9 462.1 529.9 461.3 528.8C460.5 527.7 459.8 526.6 459 525.5C458.2 524.4 457.6 523.5 457 522.7C456.5 521.9 456.1 521.5 456.1 521.3C455.3 520.2 454.4 519.3 453.4 518.4C452.4 517.5 451.4 517.1 450.2 517.1V516.5C451.5 516.5 452.6 516.5 453.6 516.5C454.7 516.5 455.9 516.3 457.2 516C458.5 515.7 459.7 515.1 460.9 514.2C462 513.3 462.9 511.9 463.5 510C463.6 509.5 463.7 509 463.8 508.3C463.9 507.6 463.9 506.9 463.9 506.2C463.9 503.3 463.1 501 461.7 499.3C460.3 497.6 458.4 496.7 456 496.5C454.8 496.4 453.6 496.4 452.4 496.4C451.2 496.4 449.7 496.4 448 496.4C448 496.4 447.9 496.2 447.8 495.9C447.7 495.6 447.5 495.1 447.3 494.5H456.3V494.7ZM448 534.4H448.2C448.2 535.5 448.6 536.4 449.4 537.2C450.2 538 451.2 538.4 452.2 538.4H453V539H448V534.4Z" fill="white"/>
<path d="M491.5 499.3H491.3C491.3 498.2 490.9 497.3 490.1 496.5C489.3 495.7 488.3 495.3 487.3 495.3H486.5L486.4 494.7H491.5V499.3ZM491.5 534.4V539H486.4V538.4H487.2C488.3 538.4 489.2 538 490 537.2C490.8 536.4 491.2 535.5 491.2 534.4H491.5ZM495.4 494.7V539H491.3V494.7H495.4ZM512.5 494.7V496.7H495.2V494.7H512.5ZM509.8 516.2V518.1H495.3V516.2H509.8ZM512.5 537V539H495.2V537H512.5ZM516.4 528.7L512.7 538.9H502.2L504.5 536.9C506.7 536.9 508.6 536.6 510 535.9C511.4 535.2 512.6 534.2 513.4 533C514.3 531.7 515.1 530.3 515.7 528.7H516.4ZM512.5 493.6V495.4L504.8 494.7C505.7 494.7 506.7 494.6 507.7 494.5C508.7 494.4 509.7 494.2 510.6 494.1C511.5 493.9 512.1 493.7 512.5 493.6ZM509.8 512.2V516.4H506.1V516.3C506.9 516.3 507.7 515.9 508.3 515.3C508.9 514.7 509.2 514 509.2 513.1V512.2H509.8ZM509.8 518V522.2H509.2V521.3C509.2 520.5 508.9 519.7 508.3 519.1C507.7 518.5 507 518.2 506.1 518.2V518H509.8ZM512.5 496.5V501.6H511.9V500.5C511.9 499.5 511.5 498.6 510.8 497.9C510.1 497.2 509.2 496.8 508.1 496.7V496.6H512.5V496.5Z" fill="white"/>
<path d="M532.9 534.5V539H527.7V538.4C528.5 538.4 528.9 538.4 528.9 538.4C530 538.4 530.9 538 531.6 537.3C532.4 536.5 532.7 535.6 532.7 534.6H532.9V534.5ZM532.8 493.7L535.6 497.2L535.7 538.9H532.8V501.6C532.8 499.4 532.6 496.8 532.2 493.7H532.8ZM532.8 493.7L569.6 532.9L570.2 539.8L533.4 500.6L532.8 493.7ZM535.7 534.5C535.7 535.6 536.1 536.5 536.8 537.2C537.6 538 538.5 538.3 539.5 538.3C539.5 538.3 539.9 538.3 540.7 538.3V538.9H535.4V534.4H535.7V534.5ZM562.2 494.7H567.4V499.2H567.3C567.3 498.1 566.9 497.2 566.1 496.4C565.4 495.7 564.4 495.3 563.3 495.3C562.5 495.3 562.1 495.3 562.1 495.3V494.7H562.2ZM570.1 494.7V531.8C570.1 533.1 570.1 534.4 570.2 535.7C570.3 536.9 570.4 538.3 570.6 539.9H570L567.2 536.5V494.7H570.1ZM575.2 494.7V495.3H574C572.9 495.3 572 495.7 571.3 496.4C570.5 497.1 570.1 498.1 570.1 499.2H569.9V494.7H575.2Z" fill="white"/>
<path d="M592.6 499.3H592.4C592.4 498.2 592 497.3 591.2 496.5C590.4 495.7 589.4 495.3 588.4 495.3H587.6L587.5 494.7H592.6V499.3ZM592.6 534.4V539H587.5V538.4H588.3C589.4 538.4 590.3 538 591.1 537.2C591.9 536.4 592.3 535.5 592.3 534.4H592.6ZM596.5 494.7V539H592.4V494.7H596.5ZM609 494.7C613.5 494.7 617.5 495.6 620.9 497.5C624.3 499.3 627 501.9 628.9 505.2C630.8 508.5 631.8 512.4 631.8 516.8C631.8 521.2 630.8 525.1 628.9 528.4C627 531.7 624.3 534.3 620.9 536.1C617.5 538 613.6 538.9 609 538.9H595.5L595.4 537C597.2 537 598.8 537 600.2 537C601.6 537 602.9 537 604.3 537C605.7 537 607.2 537 609 537C612.6 537 615.8 536.2 618.5 534.5C621.2 532.8 623.3 530.5 624.8 527.4C626.3 524.3 627 520.8 627 516.8C627 512.8 626.3 509.2 624.8 506.2C623.3 503.2 621.2 500.8 618.5 499.1C615.8 497.4 612.7 496.6 609.1 496.6C607.2 496.6 605.5 496.6 604.1 496.6C602.7 496.6 601.3 496.6 599.9 496.6C598.5 496.6 596.8 496.6 594.9 496.6V494.7H609Z" fill="white"/>
<path d="M648.7 499.3H648.5C648.5 498.2 648 497.3 647.3 496.5C646.5 495.7 645.6 495.3 644.5 495.3H643.7V494.7H648.8V499.3H648.7ZM648.7 534.4V539H643.6V538.4H644.4C645.5 538.4 646.4 538 647.2 537.2C648 536.4 648.4 535.5 648.4 534.4H648.7ZM652.6 494.7V539H648.5V494.7H652.6ZM652.4 499.3V494.7H657.5V495.3C657.5 495.3 657.2 495.3 656.7 495.3C655.6 495.3 654.7 495.7 653.9 496.5C653.1 497.3 652.7 498.2 652.7 499.3H652.4ZM652.4 534.4H652.6C652.6 535.5 653.1 536.4 653.8 537.2C654.6 538 655.5 538.4 656.6 538.4C657.1 538.4 657.4 538.4 657.4 538.4V539H652.3V534.4H652.4Z" fill="white"/>
<path d="M676.4 499.3H676.2C676.2 498.2 675.8 497.3 675 496.5C674.2 495.7 673.2 495.3 672.2 495.3H671.4L671.3 494.7H676.4V499.3ZM676.4 534.4V539H671.3V538.4H672.1C673.2 538.4 674.1 538 674.9 537.2C675.7 536.4 676.1 535.5 676.1 534.4H676.4ZM680.3 494.7V539H676.2V494.7H680.3ZM687.8 494.7C690.5 494.7 692.8 495.2 694.8 496.2C696.7 497.2 698.2 498.6 699.3 500.4C700.4 502.2 700.9 504.4 700.9 506.9C700.9 508.8 700.5 510.6 699.8 512.1C699 513.6 698 514.9 696.8 516C695.5 517.1 694.1 517.8 692.5 518.4C690.9 518.9 689.2 519.1 687.5 519C685.8 518.9 684.1 518.4 682.5 517.5V516.9C683.9 517.1 685.2 517.2 686.3 517.1C687.4 517 688.6 516.8 689.8 516.4C691 516 692.2 515.3 693.3 514.3C694.4 513.3 695.2 511.9 695.7 510.1C695.8 509.6 695.9 509.1 696 508.4C696.1 507.7 696.1 507 696.1 506.3C696.1 503.4 695.3 501 693.8 499.3C692.3 497.5 690.2 496.6 687.5 496.6H680C679.8 496 679.6 495.3 679.4 494.7H687.8ZM680.1 534.4H680.3C680.3 535.5 680.8 536.4 681.5 537.2C682.3 538 683.2 538.4 684.3 538.4H685.1V539H680V534.4H680.1Z" fill="white"/>
<path d="M718.9 499.3H718.7C718.7 498.2 718.2 497.3 717.5 496.5C716.7 495.7 715.8 495.3 714.7 495.3H713.9V494.7H719V499.3H718.9ZM718.9 534.4V539H713.8V538.4H714.6C715.7 538.4 716.6 538 717.4 537.2C718.2 536.4 718.6 535.5 718.6 534.4H718.9ZM722.8 494.7V539H718.7V494.7H722.8ZM722.6 499.3V494.7H727.7V495.3C727.7 495.3 727.4 495.3 726.9 495.3C725.8 495.3 724.9 495.7 724.1 496.5C723.3 497.3 722.9 498.2 722.9 499.3H722.6ZM722.6 534.4H722.8C722.8 535.5 723.3 536.4 724 537.2C724.8 538 725.7 538.4 726.8 538.4C727.3 538.4 727.6 538.4 727.6 538.4V539H722.5V534.4H722.6Z" fill="white"/>
<path d="M746.9 534.4C746.6 535.2 746.6 536 746.8 536.6C747 537.2 747.4 537.6 747.8 538C748.3 538.3 748.8 538.5 749.3 538.5H749.9V539.1H737.2V538.5H737.8C738.8 538.5 739.8 538.2 740.8 537.6C741.8 537 742.7 536 743.4 534.5H746.9V534.4ZM760.5 493.8L761.1 498.2L745.2 538.7H741.4L757.6 500.2C758.1 499.1 758.5 498.2 758.8 497.5C759.1 496.7 759.4 496 759.6 495.3C759.8 494.6 759.9 494.1 759.9 493.7H760.5V493.8ZM769.4 521.7V523.6H749.6V521.7H769.4ZM760.5 493.8L779.2 538.6H773.8L759.2 499.8L760.5 493.8ZM772.2 534.4H777.4C778 535.8 778.9 536.9 779.9 537.5C781 538.1 782 538.4 782.9 538.4H783.4V539H769.2V538.4H769.8C770.6 538.4 771.3 538.1 772 537.4C772.6 536.6 772.7 535.6 772.2 534.4Z" fill="white"/>
</svg>
