<svg width="600" height="600" viewBox="0 0 600 600" fill="none" xmlns="http://www.w3.org/2000/svg">
<path d="M299.971 583.165C203.866 583.165 115.804 512.396 119.609 441.736C133.423 184.699 268.287 170.665 268.287 170.665V147.153C268.287 147.153 242.407 137.523 245.822 74.699C248.97 16.8923 297.937 16.8923 297.937 16.8923H302.008C302.008 16.8923 350.975 16.8923 354.117 74.699C357.532 137.523 331.658 147.153 331.658 147.153V170.665C331.658 170.665 466.516 184.699 480.336 441.736C484.135 512.396 396.074 583.165 299.971 583.165Z" fill="#DDDFD8"/>
<path d="M301.806 498.545H297.876V69.4097H301.806V498.545Z" fill="#B1B9C6"/>
<path d="M290.02 498.545H286.091V69.4097H290.02V498.545Z" fill="#B1B9C6"/>
<path d="M313.588 498.545H309.659V69.4097H313.588V498.545Z" fill="#B1B9C6"/>
<path d="M273.903 455.767C245.9 455.619 225.422 447.575 213.183 440.856C199.85 433.533 193.226 426.299 192.954 425.992L195.865 423.359L194.407 424.676L195.859 423.359C195.926 423.429 202.422 430.495 215.243 437.506C227.063 443.964 246.834 451.696 273.927 451.837L273.903 455.767Z" fill="#B1B9C6"/>
<path d="M332.752 456.056C330.428 456.056 328.134 455.955 325.857 455.761L326.195 451.843C347.708 453.707 367.561 445.856 380.422 438.944C394.456 431.4 403.466 423.304 403.562 423.22L406.195 426.134C405.816 426.473 396.806 434.586 382.381 442.352C373.9 446.916 365.31 450.402 356.855 452.703C348.669 454.931 340.587 456.056 332.752 456.056Z" fill="#B1B9C6"/>
<path d="M274.358 537.784C259.129 533.976 244.062 528.154 229.572 520.483C215.336 512.948 202.321 503.981 190.894 493.84C166.768 472.422 152.222 447.807 149.931 424.534C148.435 409.253 150.095 388.07 154.621 364.884C159.511 339.823 167.329 314.227 177.225 290.868C188.643 263.932 202.173 241.288 217.451 223.562C235.113 203.07 254.586 189.884 275.341 184.372L276.351 188.168C239.045 198.076 205.127 235.098 180.845 292.402C158.565 344.971 151.233 397.549 153.843 424.146C156.03 446.435 170.116 470.145 193.501 490.9C216.374 511.204 245.428 526.499 275.31 533.976L274.358 537.784Z" fill="#B1B9C6"/>
<path d="M273.435 503.631C251.8 498.724 232.303 489.013 215.495 474.777C199.936 461.603 186.936 444.499 177.899 425.315L181.45 423.643C199.922 462.844 233.762 490.605 274.303 499.8L273.435 503.631Z" fill="#B1B9C6"/>
<path d="M274.583 521.111C250.712 516.386 223.663 502.517 202.225 484.019C191.253 474.549 182.373 464.494 175.828 454.141C168.741 442.917 164.783 431.892 164.068 421.386C162.078 392.095 173.287 342.561 191.959 298.119C202.046 274.117 213.877 252.72 226.172 236.233C240.347 217.228 255.069 204.583 269.936 198.649L271.392 202.295C257.211 207.96 243.058 220.168 229.326 238.579C217.211 254.812 205.544 275.932 195.582 299.644C177.124 343.568 166.036 392.384 167.986 421.117C170.845 463.166 229.057 508.096 275.341 517.26L274.583 521.111Z" fill="#B1B9C6"/>
<path d="M324.375 537.784L323.417 533.976C353.299 526.499 382.352 511.204 405.229 490.9C428.611 470.145 442.697 446.435 444.884 424.146C447.494 397.549 440.162 344.971 417.882 292.402C393.6 235.098 359.682 198.076 322.376 188.168L323.385 184.372C344.141 189.884 363.614 203.07 381.276 223.562C396.551 241.288 410.084 263.932 421.502 290.868C431.398 314.227 439.216 339.823 444.106 364.884C448.631 388.07 450.292 409.253 448.796 424.534C446.505 447.807 431.959 472.422 407.833 493.84C396.406 503.981 383.391 512.948 369.155 520.483C354.664 528.154 339.598 533.976 324.375 537.784Z" fill="#B1B9C6"/>
<path d="M324.143 521.111L323.38 517.26C369.67 508.096 427.882 463.166 430.741 421.117C432.691 392.384 421.603 343.568 403.145 299.644C393.183 275.932 381.516 254.812 369.407 238.579C355.674 220.168 341.516 207.96 327.335 202.295L328.79 198.649C343.657 204.583 358.38 217.228 372.555 236.233C384.85 252.72 396.681 274.117 406.768 298.119C425.44 342.561 436.649 392.095 434.659 421.386C433.944 431.892 429.986 442.917 422.899 454.141C416.354 464.494 407.474 474.549 396.502 484.019C375.064 502.517 348.015 516.386 324.143 521.111Z" fill="#B1B9C6"/>
<path d="M324.899 503.909L324.031 500.078C364.578 490.883 398.417 463.122 416.884 423.921L420.434 425.593C411.403 444.78 398.403 461.884 382.844 475.058C366.03 489.291 346.539 499.002 324.899 503.909Z" fill="#B1B9C6"/>
<path d="M415.133 414.991C387.326 385.31 343.348 367.222 297.488 366.615C252.292 366.024 209.85 382.381 181.073 411.51L178.281 408.753C193.565 393.281 212.124 381.418 233.452 373.495C253.559 366.024 275.119 362.39 297.543 362.685C320.31 362.986 343.189 367.535 363.712 375.822C384.878 384.375 403.655 396.988 418.003 412.303L415.133 414.991Z" fill="#B1B9C6"/>
<path d="M360.064 346.921L356.152 346.583C358.594 318.322 345.003 305.469 331.386 296.626L333.521 293.33C347.266 302.254 362.703 316.409 360.064 346.921Z" fill="#B1B9C6"/>
<path d="M268.128 295.255L196.641 294.123L196.701 290.194L268.194 291.331L268.128 295.255Z" fill="#B1B9C6"/>
<path d="M274.725 409.112L177.888 341.644L180.127 338.42L276.97 405.888L274.725 409.112Z" fill="#B1B9C6"/>
<path d="M374.91 355.802L371.817 353.374C381.117 341.522 384.517 320.446 380.686 298.371C374.855 264.731 353.802 234.277 322.917 214.818L325.014 211.496C342.063 222.245 356.01 235.857 366.455 251.965C375.538 265.966 381.794 281.78 384.554 297.697C386.56 309.245 386.696 320.752 384.954 330.981C383.238 341.024 379.769 349.609 374.91 355.802Z" fill="#B1B9C6"/>
<path d="M299.971 140.665C299.248 140.665 298.608 140.289 298.215 139.632L274.43 99.8698C273.981 99.1261 273.976 98.1857 274.401 97.4247C274.795 96.739 275.44 96.3455 276.189 96.3455H323.756C324.499 96.3455 325.15 96.739 325.538 97.4247C325.969 98.1857 325.958 99.1261 325.512 99.8698L301.725 139.632C301.331 140.289 300.692 140.665 299.971 140.665Z" fill="white"/>
<path d="M323.756 95.8188H276.189C274.112 95.8188 272.862 98.2726 273.981 100.142L297.769 139.902C298.281 140.764 299.129 141.192 299.971 141.192C300.816 141.192 301.658 140.764 302.179 139.902L325.958 100.142C327.08 98.2726 325.828 95.8188 323.756 95.8188ZM323.756 96.8692C324.537 96.8692 324.942 97.4363 325.084 97.6823C325.347 98.1539 325.483 98.9004 325.064 99.6007L301.276 139.366C300.981 139.858 300.506 140.148 299.971 140.148C299.439 140.148 298.964 139.858 298.663 139.366L274.878 99.6007C274.462 98.9004 274.592 98.1539 274.861 97.6823C274.997 97.4363 275.408 96.8692 276.189 96.8692H323.756Z" fill="#B1B9C6"/>
<path d="M276.189 75.0058C275.446 75.0058 274.795 74.6123 274.401 73.9236C273.976 73.1626 273.981 72.2251 274.43 71.4757L298.215 31.7158C298.608 31.0619 299.248 30.6771 299.971 30.6771C300.692 30.6771 301.331 31.0619 301.73 31.7158L325.512 71.4757C325.958 72.2251 325.969 73.1626 325.538 73.9236C325.15 74.6123 324.499 75.0058 323.756 75.0058H276.189Z" fill="white"/>
<path d="M299.971 30.1591C299.129 30.1591 298.281 30.5845 297.769 31.4496L273.981 71.2066C272.862 73.0758 274.112 75.5295 276.189 75.5295H323.756C325.828 75.5295 327.08 73.0758 325.958 71.2066L302.179 31.4496C301.658 30.5845 300.816 30.1591 299.971 30.1591ZM299.971 31.2037C300.506 31.2037 300.981 31.493 301.276 31.9849L325.064 71.7477C325.483 72.4479 325.347 73.2031 325.084 73.6661C324.942 73.912 324.537 74.4878 323.756 74.4878H276.189C275.408 74.4878 274.997 73.912 274.861 73.6661C274.592 73.2031 274.462 72.4479 274.878 71.7477L298.663 31.9907C298.964 31.493 299.439 31.2037 299.971 31.2037Z" fill="#B1B9C6"/>
<path d="M145.68 457.237C144.696 457.237 143.643 456.386 143.643 455.014V387.937C143.643 386.565 144.696 385.715 145.68 385.715C146.03 385.715 146.363 385.813 146.681 386.01L200.888 419.543C201.534 419.942 201.921 420.665 201.921 421.473C201.921 422.286 201.534 423.009 200.888 423.409L146.681 456.942C146.363 457.138 146.03 457.237 145.68 457.237Z" fill="white"/>
<path d="M145.68 385.188C144.34 385.188 143.116 386.337 143.116 387.937V455.014C143.116 456.615 144.34 457.758 145.68 457.758C146.105 457.758 146.542 457.642 146.953 457.39L201.16 423.851C202.87 422.795 202.87 420.156 201.16 419.1L146.953 385.561C146.542 385.304 146.105 385.188 145.68 385.188ZM145.68 386.238C145.932 386.238 146.172 386.308 146.4 386.453L200.608 419.991C201.1 420.292 201.395 420.851 201.395 421.473C201.395 422.101 201.1 422.659 200.608 422.96L146.4 456.499C146.172 456.641 145.932 456.713 145.68 456.713C144.954 456.713 144.161 456.062 144.161 455.014V387.937C144.161 386.889 144.948 386.238 145.68 386.238Z" fill="#B1B9C6"/>
<path d="M455.046 457.216C454.702 457.216 454.363 457.118 454.054 456.921L399.838 423.385C399.196 422.986 398.805 422.26 398.805 421.45C398.805 420.642 399.196 419.922 399.838 419.523L454.048 385.987C454.363 385.79 454.696 385.692 455.046 385.692C456.03 385.692 457.092 386.545 457.092 387.922V454.991C457.092 456.363 456.03 457.216 455.046 457.216Z" fill="white"/>
<path d="M455.046 385.174C454.621 385.174 454.184 385.286 453.773 385.538L399.566 419.08C397.856 420.133 397.856 422.772 399.566 423.834L453.773 457.364C454.184 457.622 454.621 457.74 455.052 457.74C456.386 457.74 457.616 456.591 457.616 454.991V387.922C457.616 386.314 456.386 385.174 455.046 385.174ZM455.046 386.215C455.778 386.215 456.565 386.866 456.565 387.922V454.991C456.565 456.042 455.778 456.69 455.052 456.69C454.8 456.69 454.554 456.62 454.326 456.479L400.119 422.943C399.627 422.636 399.332 422.08 399.332 421.45C399.332 420.828 399.627 420.272 400.119 419.971L454.326 386.429C454.554 386.288 454.8 386.215 455.046 386.215Z" fill="#B1B9C6"/>
<path d="M284.745 232.665C283.446 232.665 282.231 231.913 281.583 230.697L266.424 202.558C265.758 201.328 265.758 199.797 266.424 198.568L281.583 170.431C282.231 169.219 283.446 168.464 284.745 168.464H315.064C316.363 168.464 317.575 169.219 318.232 170.431L333.391 198.568C334.051 199.797 334.051 201.328 333.391 202.558L318.232 230.697C317.575 231.913 316.363 232.665 315.064 232.665H284.745Z" fill="white"/>
<path d="M315.064 167.94H284.745C283.249 167.94 281.866 168.796 281.117 170.185L265.958 198.316C265.211 199.705 265.211 201.421 265.958 202.807L281.117 230.943C281.866 232.332 283.249 233.192 284.745 233.192H315.064C316.56 233.192 317.943 232.332 318.692 230.943L333.851 202.807C334.598 201.421 334.598 199.705 333.851 198.316L318.692 170.185C317.943 168.796 316.56 167.94 315.064 167.94ZM315.064 168.987C316.172 168.987 317.211 169.633 317.769 170.683L332.925 198.814C333.51 199.896 333.51 201.236 332.925 202.312L317.769 230.446C317.211 231.49 316.172 232.141 315.064 232.141H284.745C283.643 232.141 282.604 231.49 282.04 230.446L266.884 202.312C266.302 201.236 266.302 199.896 266.884 198.814L282.04 170.677C282.604 169.633 283.643 168.987 284.745 168.987H315.064Z" fill="#B1B9C6"/>
<path d="M299.838 331.435C298.938 331.435 298.084 331.053 297.445 330.37L265.292 295.917C263.944 294.468 263.944 292.118 265.292 290.677L297.445 256.224C298.084 255.535 298.938 255.151 299.838 255.151C300.741 255.151 301.594 255.535 302.237 256.224L334.387 290.677C335.735 292.118 335.735 294.468 334.387 295.917L302.237 330.37C301.594 331.053 300.741 331.435 299.838 331.435Z" fill="white"/>
<path d="M299.838 254.627C298.834 254.627 297.827 255.038 297.063 255.862L264.91 290.315C263.374 291.959 263.374 294.627 264.91 296.27L297.063 330.726C297.827 331.545 298.834 331.959 299.838 331.959C300.845 331.959 301.849 331.545 302.622 330.726L334.769 296.27C336.302 294.627 336.302 291.959 334.769 290.315L302.622 255.862C301.849 255.038 300.845 254.627 299.838 254.627ZM299.838 255.677C300.599 255.677 301.308 255.998 301.849 256.577L334.002 291.03C335.168 292.277 335.168 294.308 334.002 295.556L301.849 330.009C301.308 330.587 300.599 330.911 299.838 330.911C299.086 330.911 298.368 330.587 297.827 330.009L265.674 295.556C264.511 294.308 264.511 292.277 265.674 291.03L297.827 256.577C298.368 255.998 299.086 255.677 299.838 255.677Z" fill="#B1B9C6"/>
<path d="M275.807 545.816C273.932 545.816 272.407 544.161 272.407 542.133V490.625C272.407 488.594 273.932 486.942 275.807 486.942H323.872C325.747 486.942 327.277 488.594 327.277 490.625V542.133C327.277 544.161 325.747 545.816 323.872 545.816H275.807Z" fill="white"/>
<path d="M323.872 486.418H275.807C273.637 486.418 271.884 488.304 271.884 490.625V542.133C271.884 544.456 273.637 546.34 275.807 546.34H323.872C326.042 546.34 327.801 544.456 327.801 542.133V490.625C327.801 488.304 326.042 486.418 323.872 486.418ZM323.872 487.468C325.463 487.468 326.751 488.883 326.751 490.625V542.133C326.751 543.877 325.463 545.292 323.872 545.292H275.807C274.222 545.292 272.925 543.877 272.925 542.133V490.625C272.925 488.883 274.222 487.468 275.807 487.468H323.872Z" fill="#B1B9C6"/>
<path d="M299.708 468.293C280.796 468.293 265.408 451.785 265.408 431.496C265.408 411.207 280.796 394.696 299.708 394.696C318.626 394.696 334.013 411.207 334.013 431.496C334.013 451.785 318.626 468.293 299.708 468.293Z" fill="white"/>
<path d="M299.708 394.172C280.472 394.172 264.881 410.883 264.881 431.496C264.881 452.106 280.472 468.817 299.708 468.817C318.944 468.817 334.537 452.106 334.537 431.496C334.537 410.883 318.944 394.172 299.708 394.172ZM299.708 395.223C308.718 395.223 317.193 398.987 323.571 405.816C329.971 412.677 333.49 421.791 333.49 431.496C333.49 441.195 329.971 450.315 323.571 457.173C317.193 464.002 308.718 467.766 299.708 467.766C290.703 467.766 282.228 464.002 275.851 457.173C269.45 450.315 265.932 441.195 265.932 431.496C265.932 421.791 269.45 412.677 275.851 405.816C282.228 398.987 290.703 395.223 299.708 395.223Z" fill="#B1B9C6"/>
<path d="M360.463 391.965C348.189 391.965 338.206 381.25 338.206 368.073C338.206 354.905 348.189 344.19 360.463 344.19C372.734 344.19 382.72 354.905 382.72 368.073C382.72 381.25 372.734 391.965 360.463 391.965Z" fill="white"/>
<path d="M360.463 343.666C347.876 343.666 337.679 354.595 337.679 368.073C337.679 381.56 347.876 392.488 360.463 392.488C373.047 392.488 383.244 381.56 383.244 368.073C383.244 354.595 373.047 343.666 360.463 343.666ZM360.463 344.708C372.445 344.708 382.193 355.194 382.193 368.073C382.193 380.961 372.445 391.441 360.463 391.441C348.478 391.441 338.724 380.961 338.724 368.073C338.724 355.194 348.478 344.708 360.463 344.708Z" fill="#B1B9C6"/>
</svg>
