<svg width="754" height="754" viewBox="0 0 754 754" fill="none" xmlns="http://www.w3.org/2000/svg">
<g clip-path="url(#clip0_6_827)">
<path d="M377.01 698.487C554.557 698.487 698.487 554.557 698.487 377.01C698.487 199.463 554.557 55.5327 377.01 55.5327C199.463 55.5327 55.5327 199.463 55.5327 377.01C55.5327 554.557 199.463 698.487 377.01 698.487Z" stroke="#778690" stroke-width="2" stroke-miterlimit="10"/>
<path d="M377.01 629.92C516.688 629.92 629.92 516.688 629.92 377.01C629.92 237.331 516.688 124.1 377.01 124.1C237.331 124.1 124.1 237.331 124.1 377.01C124.1 516.688 237.331 629.92 377.01 629.92Z" stroke="#778690" stroke-width="2" stroke-miterlimit="10"/>
<path d="M377.01 535.835C464.726 535.835 535.834 464.726 535.834 377.01C535.834 289.293 464.726 218.185 377.01 218.185C289.293 218.185 218.185 289.293 218.185 377.01C218.185 464.726 289.293 535.835 377.01 535.835Z" stroke="#778690" stroke-width="2" stroke-miterlimit="10"/>
<path d="M104.627 315.156C99.6211 315.156 96.4607 319.73 94.9689 329.329C93.4574 319.73 90.297 315.156 85.2914 315.156C83.287 315.156 81.3647 315.953 79.9474 317.37C78.5301 318.787 77.7339 320.709 77.7339 322.714C77.7374 323.569 77.9159 324.414 78.2584 325.197C78.601 325.98 79.1003 326.685 79.7255 327.268C80.3508 327.851 81.0888 328.3 81.8941 328.587C82.6995 328.874 83.555 328.993 84.408 328.936V326.974C83.8093 327.03 83.2053 326.963 82.6336 326.776C82.062 326.589 81.5351 326.286 81.0856 325.887C80.6362 325.487 80.274 324.999 80.0216 324.453C79.7691 323.907 79.6318 323.315 79.6184 322.714C79.6235 321.232 80.2146 319.812 81.2627 318.764C82.3107 317.716 83.7307 317.125 85.2128 317.119C90.5914 317.119 93.4966 325.423 93.8892 341.833C93.8892 343.129 93.8892 344.464 93.8892 345.759H95.8522C95.8522 344.385 95.8522 343.031 95.8522 341.735C96.2448 325.344 99.15 317.041 104.529 317.041C106.011 317.046 107.431 317.637 108.479 318.685C109.527 319.733 110.118 321.153 110.123 322.635C110.112 323.238 109.977 323.831 109.726 324.378C109.474 324.926 109.112 325.415 108.662 325.815C108.212 326.215 107.684 326.518 107.111 326.704C106.538 326.89 105.933 326.955 105.333 326.895V328.858C106.193 328.929 107.059 328.82 107.875 328.539C108.69 328.259 109.439 327.812 110.074 327.227C110.708 326.642 111.215 325.932 111.561 325.142C111.907 324.352 112.086 323.498 112.086 322.635C112.066 320.661 111.274 318.774 109.88 317.376C108.486 315.979 106.6 315.182 104.627 315.156V315.156Z" stroke="#778690" stroke-width="2" stroke-miterlimit="10"/>
<path d="M321.085 669.906C322.681 669.904 324.22 669.31 325.405 668.239C326.589 667.169 327.335 665.697 327.499 664.109C327.662 662.521 327.232 660.928 326.29 659.639C325.348 658.35 323.962 657.455 322.4 657.127C324.949 656.371 327.593 655.988 330.252 655.988C335.195 655.986 339.943 657.917 343.482 661.367L344.856 659.973C340.943 656.18 335.702 654.067 330.252 654.084C322.989 654.084 315.274 656.361 314.548 662.643C314.528 662.931 314.528 663.219 314.548 663.507C314.555 664.357 314.731 665.196 315.064 665.978C315.397 666.76 315.881 667.469 316.488 668.063C317.095 668.658 317.814 669.126 318.603 669.443C319.391 669.759 320.235 669.916 321.085 669.906V669.906ZM325.56 663.448C325.601 664.062 325.515 664.678 325.308 665.257C325.101 665.837 324.777 666.367 324.357 666.817C323.936 667.266 323.428 667.624 322.863 667.869C322.299 668.114 321.69 668.24 321.075 668.24C320.459 668.24 319.851 668.114 319.286 667.869C318.722 667.624 318.213 667.266 317.793 666.817C317.372 666.367 317.049 665.837 316.842 665.257C316.635 664.678 316.549 664.062 316.589 663.448V663.448C316.665 662.31 317.17 661.242 318.003 660.463C318.836 659.683 319.934 659.25 321.075 659.25C322.216 659.25 323.314 659.683 324.147 660.463C324.979 661.242 325.485 662.31 325.56 663.448V663.448Z" stroke="#778690" stroke-width="2" stroke-miterlimit="10"/>
<path d="M344.13 668.296C344.127 667.079 343.781 665.888 343.13 664.86C342.48 663.831 341.552 663.007 340.454 662.483C339.356 661.959 338.132 661.755 336.923 661.897C335.714 662.038 334.57 662.517 333.622 663.28C332.674 664.044 331.961 665.059 331.565 666.21C331.169 667.36 331.106 668.599 331.384 669.784C331.661 670.969 332.268 672.051 333.134 672.906C334 673.762 335.09 674.355 336.278 674.617C333.726 675.357 331.083 675.734 328.426 675.736C323.476 675.747 318.718 673.816 315.176 670.358L313.822 671.771C317.731 675.569 322.975 677.684 328.426 677.66C335.689 677.66 343.404 675.383 344.13 669.101C344.15 668.82 344.15 668.538 344.13 668.257V668.296ZM333.177 668.296C333.177 667.104 333.65 665.961 334.493 665.118C335.336 664.275 336.48 663.801 337.672 663.801C338.864 663.801 340.007 664.275 340.85 665.118C341.693 665.961 342.167 667.104 342.167 668.296V668.296C342.167 669.489 341.693 670.632 340.85 671.475C340.007 672.318 338.864 672.792 337.672 672.792C336.48 672.792 335.336 672.318 334.493 671.475C333.65 670.632 333.177 669.489 333.177 668.296Z" stroke="#778690" stroke-width="2" stroke-miterlimit="10"/>
<path d="M195.69 608.74V589.718C198.637 588.817 201.328 587.229 203.541 585.086L202.187 583.672C198.889 586.88 194.47 588.675 189.869 588.675C185.269 588.675 180.85 586.88 177.552 583.672L176.177 585.086C178.395 587.225 181.085 588.812 184.029 589.718V608.74C181.085 609.646 178.395 611.233 176.177 613.372L177.552 614.786C180.85 611.578 185.269 609.783 189.869 609.783C194.47 609.783 198.889 611.578 202.187 614.786L203.541 613.372C201.328 611.228 198.637 609.641 195.69 608.74V608.74ZM185.875 608.229V590.229C188.463 590.775 191.138 590.775 193.727 590.229V608.229C191.138 607.683 188.463 607.683 185.875 608.229V608.229Z" stroke="#778690" stroke-width="2" stroke-miterlimit="10"/>
<path d="M111.89 470.507C112.475 469.456 113.329 468.58 114.363 467.966C115.398 467.352 116.576 467.023 117.779 467.013V465.05C116.265 465.04 114.776 465.429 113.46 466.177C112.144 466.924 111.047 468.004 110.28 469.309C109.685 470.345 108.827 471.205 107.793 471.804C106.759 472.402 105.586 472.717 104.391 472.717C103.197 472.717 102.023 472.402 100.989 471.804C99.9552 471.205 99.0974 470.345 98.5022 469.309C97.7352 468.004 96.6387 466.924 95.3226 466.177C94.0066 465.429 92.5172 465.04 91.0037 465.05V467.013C92.2068 467.021 93.386 467.349 94.4207 467.963C95.4554 468.577 96.3085 469.455 96.8926 470.507C97.7988 471.849 98.9839 472.981 100.367 473.824C97.7627 474.768 95.5744 476.6 94.187 478.998C92.7996 481.396 92.3018 484.206 92.7811 486.935C93.2605 489.663 94.6862 492.135 96.8078 493.917C98.9294 495.698 101.611 496.675 104.381 496.675C107.152 496.675 109.833 495.698 111.955 493.917C114.076 492.135 115.502 489.663 115.982 486.935C116.461 484.206 115.963 481.396 114.576 478.998C113.188 476.6 111 474.768 108.396 473.824C109.786 472.983 110.978 471.851 111.89 470.507V470.507ZM114.245 484.915C114.245 486.856 113.67 488.754 112.591 490.368C111.513 491.982 109.98 493.24 108.186 493.983C106.393 494.726 104.42 494.92 102.516 494.541C100.612 494.162 98.8629 493.228 97.4903 491.855C96.1176 490.482 95.1828 488.734 94.8041 486.83C94.4254 484.926 94.6198 482.952 95.3627 481.159C96.1055 479.365 97.3635 477.833 98.9776 476.754C100.592 475.676 102.489 475.1 104.43 475.1C107.027 475.095 109.519 476.118 111.363 477.947C113.206 479.775 114.249 482.26 114.265 484.856L114.245 484.915Z" stroke="#778690" stroke-width="2" stroke-miterlimit="10"/>
<path d="M490.529 665.077C490.155 665.846 489.604 666.515 488.922 667.03C488.239 667.546 487.445 667.892 486.603 668.041C486.001 668.116 485.39 668.05 484.818 667.849C484.246 667.648 483.728 667.318 483.305 666.883C480.439 663.821 482.284 659.973 484.444 655.537C486.603 651.101 489.017 646.056 485.877 641.6C485.162 640.6 484.22 639.784 483.128 639.221C482.035 638.658 480.824 638.363 479.595 638.361C478.274 638.313 476.96 638.58 475.762 639.14C474.564 639.7 473.516 640.536 472.705 641.58C469.8 645.388 471.704 649.216 473.372 652.573C472.579 652.233 471.723 652.059 470.86 652.063C469.575 652.063 468.319 652.444 467.25 653.158C466.182 653.872 465.349 654.886 464.857 656.074C464.365 657.261 464.237 658.567 464.487 659.828C464.738 661.088 465.357 662.246 466.266 663.154C467.174 664.063 468.332 664.682 469.592 664.933C470.853 665.183 472.159 665.055 473.346 664.563C474.534 664.071 475.548 663.238 476.262 662.17C476.976 661.101 477.357 659.845 477.357 658.56C477.357 658.305 477.357 658.069 477.357 657.834C477.011 655.664 476.272 653.575 475.178 651.67C473.549 648.411 472.136 645.585 474.315 642.738C474.951 641.957 475.758 641.332 476.673 640.91C477.588 640.488 478.588 640.281 479.595 640.304C480.518 640.308 481.426 640.529 482.248 640.948C483.07 641.367 483.782 641.974 484.326 642.719C486.78 646.213 484.797 650.316 482.716 654.654C480.459 659.345 478.123 664.174 481.911 668.198C482.449 668.773 483.1 669.231 483.823 669.542C484.546 669.852 485.325 670.01 486.112 670.004H486.897C488.044 669.824 489.131 669.375 490.07 668.692C491.008 668.01 491.771 667.114 492.296 666.078L490.529 665.077ZM470.899 663.114C470.002 663.114 469.126 662.848 468.38 662.35C467.634 661.852 467.053 661.143 466.71 660.315C466.367 659.486 466.277 658.575 466.452 657.695C466.627 656.815 467.059 656.007 467.693 655.373C468.327 654.739 469.135 654.307 470.015 654.132C470.894 653.957 471.806 654.047 472.634 654.39C473.463 654.734 474.171 655.315 474.669 656.06C475.168 656.806 475.434 657.683 475.434 658.58C475.431 659.177 475.311 659.768 475.079 660.318C474.848 660.868 474.51 661.368 474.085 661.787C473.66 662.207 473.156 662.538 472.603 662.763C472.049 662.987 471.457 663.1 470.86 663.094L470.899 663.114Z" stroke="#778690" stroke-width="2" stroke-miterlimit="10"/>
<path d="M663.703 300.768L662.722 302.476L664.959 303.771C663.338 303.944 661.708 303.549 660.346 302.652C658.855 301.16 658.874 296.881 658.913 288.362V283.572C658.913 276.407 656.95 272.305 653.476 272.305C652.52 272.343 651.601 272.683 650.85 273.275C650.099 273.867 649.555 274.682 649.295 275.602L649 276.368C648.097 273.738 646.566 272.305 644.544 272.305C643.589 272.343 642.67 272.683 641.919 273.275C641.168 273.867 640.623 274.682 640.363 275.602C640.155 276.079 639.984 276.571 639.853 277.075C639.322 275.912 638.536 274.883 637.554 274.064C636.573 273.245 635.419 272.657 634.18 272.344L633.611 274.307C636.32 275.112 639.068 276.859 639.068 283.651V300.709H641.031V283.651C640.931 281.209 641.298 278.771 642.11 276.466C642.719 275.053 643.524 274.346 644.505 274.346C646.645 274.346 647.98 277.919 647.98 283.651V300.709H649.943V283.651C649.839 281.207 650.212 278.767 651.042 276.466C651.65 275.053 652.455 274.346 653.417 274.346C655.557 274.346 656.892 277.919 656.892 283.651C656.892 285.378 656.892 286.968 656.892 288.421C656.892 298.059 656.892 302.044 658.855 304.124C660.15 305.42 662.015 305.734 664.959 305.813L662.623 307.167L663.605 308.875L670.554 304.949L663.703 300.768Z" stroke="#778690" stroke-width="2" stroke-miterlimit="10"/>
<path d="M680.408 438.549H645.742V440.512H680.408V438.549Z" stroke="#778690" stroke-width="2" stroke-miterlimit="10"/>
<path d="M656.793 428.636C656.879 428.523 656.926 428.386 656.926 428.244C656.926 428.102 656.879 427.964 656.793 427.851C655.448 426.474 654.487 424.769 654.006 422.904C654.006 418.978 658.109 415.897 663.134 415.897C668.159 415.897 672.262 419.037 672.262 422.904C671.759 424.804 670.763 426.538 669.376 427.93C669.283 428.039 669.232 428.178 669.232 428.322C669.232 428.466 669.283 428.605 669.376 428.715C669.482 428.841 669.614 428.941 669.763 429.009C669.913 429.077 670.076 429.111 670.24 429.107H680.408V427.596H672.006C673.14 426.288 673.887 424.691 674.166 422.983C674.166 418.291 669.199 414.483 663.075 414.483C656.95 414.483 651.984 418.291 651.984 422.983C652.263 424.691 653.01 426.288 654.143 427.596H645.82V429.107H655.989C656.149 429.093 656.304 429.043 656.443 428.961C656.582 428.88 656.702 428.769 656.793 428.636Z" stroke="#778690" stroke-width="2" stroke-miterlimit="10"/>
<path d="M603.4 583.712C606.07 581.749 608.249 578.294 608.249 572.11C608.249 567.321 607.797 561.824 604.166 561.824C603.686 561.851 603.221 562 602.815 562.258C602.41 562.516 602.077 562.873 601.85 563.297C601.653 557.113 599.788 553.599 596.648 553.599C595.746 553.655 594.885 553.988 594.181 554.555C593.478 555.121 592.968 555.891 592.722 556.76C592.631 556.958 592.553 557.161 592.486 557.368C591.603 554.915 590.17 553.599 588.246 553.599C587.345 553.655 586.483 553.988 585.78 554.555C585.077 555.121 584.567 555.891 584.32 556.76C584.143 557.169 583.992 557.588 583.869 558.016C583.346 556.942 582.596 555.994 581.671 555.238C580.745 554.482 579.667 553.937 578.51 553.639L577.94 555.602C580.492 556.367 583.083 558.016 583.083 564.435V580.61H585.046V564.357C584.952 562.042 585.298 559.73 586.067 557.545C586.636 556.23 587.382 555.582 588.285 555.582C590.248 555.582 591.524 558.939 591.524 564.376V580.551H593.487V564.357C593.393 562.042 593.739 559.73 594.508 557.545C595.097 556.23 595.823 555.582 596.726 555.582C598.689 555.582 599.965 559.037 599.965 564.376V564.73C599.698 570.789 600.106 576.859 601.182 582.828C599.355 583.737 597.334 584.188 595.293 584.143V586.106C597.5 586.134 599.686 585.671 601.692 584.752C602.354 586.859 603.649 588.71 605.402 590.052L606.541 588.462C605.015 587.253 603.915 585.589 603.4 583.712V583.712ZM601.869 569.617C602.242 566.614 603.322 563.728 604.107 563.728C604.892 563.728 606.227 564.808 606.227 572.052C606.227 576.88 604.755 579.786 602.772 581.552C602.102 577.611 601.8 573.615 601.869 569.617V569.617Z" stroke="#778690" stroke-width="2" stroke-miterlimit="10"/>
<path d="M567.281 146.203L567.792 148.087L576.233 145.83L557.781 164.282L551.656 158.157L550.262 159.551L556.387 165.676L549.144 172.939L550.518 174.313L557.781 167.069L563.964 173.233L565.358 171.859L559.174 165.676L577.725 147.125L575.428 155.723L577.312 156.234L580.983 142.532L567.281 146.203Z" stroke="#778690" stroke-width="2" stroke-miterlimit="10"/>
<path d="M168.483 194.826V192.863H164.89C165.111 187.914 167.144 183.218 170.603 179.672L169.189 178.317C165.376 182.225 163.145 187.407 162.927 192.863H153.898C153.671 187.409 151.442 182.23 147.636 178.317L146.222 179.672C149.673 183.224 151.705 187.916 151.935 192.863H148.362V194.826H151.935C151.727 199.795 149.693 204.513 146.222 208.076L147.636 209.45C151.446 205.532 153.676 200.345 153.898 194.885H162.927C163.142 200.347 165.373 205.536 169.189 209.45L170.603 208.076C167.124 204.518 165.089 199.797 164.89 194.826H168.483Z" stroke="#778690" stroke-width="2" stroke-miterlimit="10"/>
<path d="M267.849 99.7979C268.398 100.753 269.19 101.545 270.145 102.093C271.101 102.642 272.185 102.927 273.286 102.919C274.5 103.037 275.721 102.799 276.802 102.234C277.882 101.669 278.775 100.802 279.371 99.739C279.911 100.711 280.703 101.519 281.663 102.078C282.623 102.638 283.717 102.928 284.828 102.919C286.037 103.038 287.255 102.805 288.335 102.247C289.414 101.69 290.31 100.833 290.914 99.7783C291.433 100.765 292.221 101.583 293.187 102.139C294.153 102.695 295.257 102.966 296.371 102.919L296.469 100.956C294.27 100.956 293.171 100.465 291.895 97.2657L291.561 96.6572H290.227L289.971 97.2657C288.637 100.622 286.732 101.015 284.907 100.956C283.081 100.897 281.531 100.23 280.333 97.2657L279.999 96.6572H278.743L278.508 97.2657C277.153 100.622 275.269 101.015 273.443 100.956C271.617 100.897 270.047 100.23 268.85 97.2657L268.516 96.6572H267.201L266.946 97.2657C265.591 100.622 264.354 101.192 261.901 100.956L261.783 102.919H262.549C263.642 102.984 264.73 102.722 265.674 102.166C266.618 101.61 267.375 100.786 267.849 99.7979V99.7979Z" stroke="#778690" stroke-width="2" stroke-miterlimit="10"/>
<path d="M291.895 107.454L291.561 106.825H290.227L289.971 107.454C288.637 110.81 286.732 111.203 284.907 111.144C283.081 111.085 281.531 110.418 280.333 107.454L279.999 106.825H278.743L278.508 107.454C277.153 110.81 275.269 111.203 273.443 111.144C271.617 111.085 270.047 110.418 268.85 107.454L268.516 106.825H267.201L266.946 107.454C265.591 110.81 264.354 111.379 261.901 111.144L261.783 113.107H262.549C263.648 113.167 264.741 112.896 265.686 112.329C266.63 111.762 267.384 110.926 267.849 109.927C268.393 110.887 269.185 111.684 270.141 112.236C271.096 112.788 272.182 113.075 273.286 113.068C274.499 113.18 275.718 112.94 276.798 112.376C277.878 111.812 278.771 110.948 279.371 109.888C279.914 110.856 280.707 111.662 281.666 112.221C282.626 112.781 283.718 113.073 284.828 113.068C286.037 113.182 287.253 112.946 288.331 112.389C289.41 111.833 290.306 110.978 290.914 109.927C291.433 110.913 292.221 111.732 293.187 112.288C294.153 112.844 295.257 113.114 296.371 113.068L296.469 111.105C294.27 111.026 293.171 110.653 291.895 107.454Z" stroke="#778690" stroke-width="2" stroke-miterlimit="10"/>
<path d="M442.063 94.8708C438.922 94.8708 437.705 97.5208 436.684 100.642C434.27 96.716 434.152 90.1793 434.093 87.4508C434.093 86.9993 434.093 86.6459 434.093 86.3907C433.936 83.1911 431.855 78.5388 428.518 78.5388C425.181 78.5388 422.944 81.3066 421.766 87.0974C420.588 81.2085 418.37 78.5388 415.013 78.5388C413.969 78.537 412.946 78.8369 412.069 79.4025L413.109 81.0514C413.697 80.6846 414.379 80.4938 415.072 80.5018C418.645 80.5018 420.568 86.1945 420.843 97.4227C420.843 98.3453 420.843 99.3857 420.843 100.269V101.251H422.806V100.269C422.806 99.2875 422.806 98.306 422.806 97.4227C423.081 86.1945 425.024 80.5018 428.577 80.5018C430.364 80.5018 432.052 83.78 432.189 86.3907C432.189 86.6263 432.189 86.96 432.189 87.3919C432.189 90.6308 432.385 98.6594 436.115 102.899C434.525 107.905 432.366 113.146 423.846 113.146V115.109C433.19 115.109 436.017 109.358 437.705 104.352C439.005 105.218 440.54 105.664 442.102 105.628C442.825 105.641 443.543 105.509 444.214 105.238C444.884 104.968 445.493 104.565 446.004 104.054C446.516 103.542 446.919 102.933 447.189 102.263C447.46 101.592 447.592 100.874 447.579 100.151C447.591 99.4343 447.455 98.7226 447.179 98.0608C446.903 97.399 446.493 96.8014 445.975 96.3055C445.457 95.8097 444.842 95.4263 444.169 95.1794C443.496 94.9325 442.779 94.8274 442.063 94.8708V94.8708ZM441.945 103.763C440.571 103.789 439.236 103.307 438.196 102.409C439.295 98.8557 440.159 96.8534 442.122 96.8534C442.574 96.8309 443.025 96.9034 443.448 97.0661C443.87 97.2288 444.253 97.4781 444.573 97.7981C444.893 98.118 445.142 98.5015 445.305 98.9237C445.468 99.3459 445.54 99.7975 445.518 100.249C445.532 100.72 445.449 101.188 445.273 101.624C445.098 102.061 444.834 102.456 444.499 102.786C444.163 103.116 443.763 103.373 443.324 103.541C442.885 103.709 442.415 103.785 441.945 103.763V103.763Z" stroke="#778690" stroke-width="2" stroke-miterlimit="10"/>
<path d="M85.5073 241.78L146.733 272.403" stroke="#778690" stroke-width="2" stroke-miterlimit="10"/>
<path d="M190.115 115.482L230.297 170.976" stroke="#778690" stroke-width="2" stroke-miterlimit="10"/>
<path d="M348.939 56.789L353.395 125.042" stroke="#778690" stroke-width="2" stroke-miterlimit="10"/>
<path d="M125.69 403.785L56.7891 406.985" stroke="#778690" stroke-width="2" stroke-miterlimit="10"/>
<path d="M116.11 565.161L170.976 523.703" stroke="#778690" stroke-width="2" stroke-miterlimit="10"/>
<path d="M273.031 607.915L243.684 669.788" stroke="#778690" stroke-width="2" stroke-miterlimit="10"/>
<path d="M605.991 484.169L667.236 514.772" stroke="#778690" stroke-width="2" stroke-miterlimit="10"/>
<path d="M521.151 586.224L561.334 641.718" stroke="#778690" stroke-width="2" stroke-miterlimit="10"/>
<path d="M628.31 355.947L697.211 352.767" stroke="#778690" stroke-width="2" stroke-miterlimit="10"/>
<path d="M586.852 234.125L641.718 192.666" stroke="#778690" stroke-width="2" stroke-miterlimit="10"/>
<path d="M514.144 86.7833L484.797 148.656" stroke="#778690" stroke-width="2" stroke-miterlimit="10"/>
<path d="M405.709 697.211L399.957 628.958" stroke="#778690" stroke-width="2" stroke-miterlimit="10"/>
<path d="M148.009 269.851L259.643 325.344" stroke="#778690" stroke-width="2" stroke-miterlimit="10"/>
<path d="M230.611 171.937L300.787 272.717" stroke="#778690" stroke-width="2" stroke-miterlimit="10"/>
<path d="M443.653 267.613L506.174 159.806" stroke="#778690" stroke-width="2" stroke-miterlimit="10"/>
<path d="M491.491 318.631L601.202 259.31" stroke="#778690" stroke-width="2" stroke-miterlimit="10"/>
<path d="M504.898 379.876H629.92" stroke="#778690" stroke-width="2" stroke-miterlimit="10"/>
<path d="M492.767 432.817L605.03 486.387" stroke="#778690" stroke-width="2" stroke-miterlimit="10"/>
<path d="M450.68 481.931L522.761 583.358" stroke="#778690" stroke-width="2" stroke-miterlimit="10"/>
<path d="M390.083 629.272L384.979 505.526" stroke="#778690" stroke-width="2" stroke-miterlimit="10"/>
<path d="M312.899 487.663L251.654 596.746" stroke="#778690" stroke-width="2" stroke-miterlimit="10"/>
<path d="M264.413 438.549L155.978 499.794" stroke="#778690" stroke-width="2" stroke-miterlimit="10"/>
<path d="M249.102 378.6L124.1 379.228" stroke="#778690" stroke-width="2" stroke-miterlimit="10"/>
<path d="M364.564 124.1L370.944 249.102" stroke="#778690" stroke-width="2" stroke-miterlimit="10"/>
<path d="M236.273 408.761H237.273V407.761H236.273V408.761ZM236.273 414.906V415.906H237.273V414.906H236.273ZM235.529 414.906H234.529V415.906H235.529V414.906ZM235.529 409.541H236.529V408.541H235.529V409.541ZM235.493 409.541V408.541H235.192L234.94 408.708L235.493 409.541ZM233.993 410.537H232.993V412.401L234.546 411.37L233.993 410.537ZM233.993 409.781L233.44 408.948L232.993 409.245V409.781H233.993ZM235.529 408.761V407.761H235.228L234.976 407.928L235.529 408.761ZM235.273 408.761V414.906H237.273V408.761H235.273ZM236.273 413.906H235.529V415.906H236.273V413.906ZM236.529 414.906V409.541H234.529V414.906H236.529ZM235.529 408.541H235.493V410.541H235.529V408.541ZM234.94 408.708L233.44 409.704L234.546 411.37L236.046 410.374L234.94 408.708ZM234.993 410.537V409.781H232.993V410.537H234.993ZM234.546 410.614L236.082 409.594L234.976 407.928L233.44 408.948L234.546 410.614ZM235.529 409.761H236.273V407.761H235.529V409.761Z" fill="#778690"/>
<path d="M230.757 341.156H231.757V340.156H230.757V341.156ZM230.757 347.301V348.301H231.757V347.301H230.757ZM230.013 347.301H229.013V348.301H230.013V347.301ZM230.013 341.936H231.013V340.936H230.013V341.936ZM229.977 341.936V340.936H229.675L229.424 341.103L229.977 341.936ZM228.477 342.932H227.477V344.796L229.03 343.765L228.477 342.932ZM228.477 342.176L227.924 341.343L227.477 341.639V342.176H228.477ZM230.013 341.156V340.156H229.711L229.46 340.323L230.013 341.156ZM229.757 341.156V347.301H231.757V341.156H229.757ZM230.757 346.301H230.013V348.301H230.757V346.301ZM231.013 347.301V341.936H229.013V347.301H231.013ZM230.013 340.936H229.977V342.936H230.013V340.936ZM229.424 341.103L227.924 342.099L229.03 343.765L230.53 342.769L229.424 341.103ZM229.477 342.932V342.176H227.477V342.932H229.477ZM229.03 343.009L230.566 341.989L229.46 340.323L227.924 341.343L229.03 343.009ZM230.013 342.156H230.757V340.156H230.013V342.156ZM232.525 347.301H231.525V348.301H232.525V347.301ZM232.525 346.761L231.786 346.086L231.525 346.373V346.761H232.525ZM234.553 344.54L233.816 343.865L233.815 343.866L234.553 344.54ZM235.141 343.862L235.921 344.488L235.925 344.484L235.141 343.862ZM235.483 343.316L234.569 342.912L234.567 342.917L235.483 343.316ZM235.441 342.215L234.601 342.757L234.606 342.765L235.441 342.215ZM235.021 341.849L235.456 340.948L235.456 340.948L235.021 341.849ZM233.803 341.867L234.286 342.742L234.29 342.74L233.803 341.867ZM233.398 342.272L232.522 341.789L232.518 341.797L233.398 342.272ZM233.257 342.884V343.884H234.257V342.884H233.257ZM232.549 342.884H231.549V343.884H232.549V342.884ZM232.798 341.936L233.651 342.457V342.457L232.798 341.936ZM233.476 341.3L233.009 340.415L233.007 340.417L233.476 341.3ZM235.402 341.3L235.882 340.422V340.422L235.402 341.3ZM236.171 343.439L235.236 343.084L235.234 343.089L236.171 343.439ZM235.751 344.156L234.953 343.552L234.953 343.553L235.751 344.156ZM234.925 345.117L235.656 345.799L235.657 345.798L234.925 345.117ZM233.545 346.593L232.815 345.91L232.545 346.198V346.593H233.545ZM233.545 346.641H232.545V347.641H233.545V346.641ZM236.402 346.641H237.402V345.641H236.402V346.641ZM236.402 347.301V348.301H237.402V347.301H236.402ZM233.525 347.301V346.761H231.525V347.301H233.525ZM233.263 347.435L235.292 345.215L233.815 343.866L231.786 346.086L233.263 347.435ZM235.291 345.216C235.538 344.946 235.749 344.702 235.921 344.488L234.361 343.237C234.225 343.406 234.045 343.615 233.816 343.865L235.291 345.216ZM235.925 344.484C236.116 344.243 236.282 343.986 236.4 343.715L234.567 342.917C234.537 342.986 234.475 343.093 234.358 343.24L235.925 344.484ZM236.398 343.72C236.53 343.421 236.598 343.103 236.598 342.776H234.598C234.598 342.825 234.589 342.867 234.569 342.912L236.398 343.72ZM236.598 342.776C236.598 342.393 236.503 342.009 236.277 341.665L234.606 342.765C234.603 342.76 234.601 342.755 234.599 342.751C234.596 342.746 234.595 342.743 234.595 342.742C234.594 342.739 234.598 342.748 234.598 342.776H236.598ZM236.282 341.672C236.075 341.352 235.791 341.11 235.456 340.948L234.586 342.749C234.594 342.753 234.598 342.755 234.6 342.757C234.603 342.758 234.603 342.759 234.603 342.759C234.603 342.758 234.602 342.758 234.601 342.757C234.601 342.756 234.601 342.756 234.601 342.757L236.282 341.672ZM235.456 340.948C235.127 340.789 234.775 340.72 234.421 340.72V342.72C234.511 342.72 234.56 342.736 234.586 342.749L235.456 340.948ZM234.421 340.72C234.044 340.72 233.665 340.799 233.317 340.993L234.29 342.74C234.293 342.738 234.326 342.72 234.421 342.72V340.72ZM233.32 340.991C232.981 341.178 232.71 341.449 232.522 341.789L234.274 342.755C234.276 342.75 234.278 342.748 234.278 342.747C234.279 342.747 234.279 342.747 234.278 342.747C234.278 342.748 234.278 342.748 234.279 342.747C234.279 342.746 234.282 342.745 234.286 342.742L233.32 340.991ZM232.518 341.797C232.332 342.141 232.257 342.514 232.257 342.884H234.257C234.257 342.785 234.276 342.751 234.278 342.747L232.518 341.797ZM233.257 341.884H232.549V343.884H233.257V341.884ZM233.549 342.884C233.549 342.683 233.593 342.552 233.651 342.457L231.944 341.415C231.67 341.863 231.549 342.365 231.549 342.884H233.549ZM233.651 342.457C233.723 342.34 233.815 342.252 233.945 342.183L233.007 340.417C232.565 340.651 232.205 340.987 231.944 341.415L233.651 342.457ZM233.943 342.184C234.073 342.115 234.233 342.072 234.445 342.072V340.072C233.941 340.072 233.455 340.18 233.009 340.415L233.943 342.184ZM234.445 342.072C234.661 342.072 234.811 342.116 234.923 342.177L235.882 340.422C235.438 340.179 234.95 340.072 234.445 340.072V342.072ZM234.923 342.177C235.055 342.249 235.141 342.335 235.204 342.437L236.909 341.392C236.656 340.978 236.306 340.654 235.882 340.422L234.923 342.177ZM235.204 342.437C235.261 342.531 235.294 342.636 235.294 342.776H237.294C237.294 342.284 237.168 341.815 236.909 341.392L235.204 342.437ZM235.294 342.776C235.294 342.878 235.276 342.979 235.236 343.084L237.106 343.794C237.23 343.467 237.294 343.126 237.294 342.776H235.294ZM235.234 343.089C235.199 343.181 235.119 343.334 234.953 343.552L236.548 344.76C236.782 344.45 236.982 344.125 237.107 343.789L235.234 343.089ZM234.953 343.553C234.784 343.777 234.534 344.07 234.194 344.435L235.657 345.798C236.021 345.407 236.321 345.059 236.548 344.759L234.953 343.553ZM234.195 344.434L232.815 345.91L234.275 347.276L235.656 345.799L234.195 344.434ZM232.545 346.593V346.641H234.545V346.593H232.545ZM233.545 347.641H236.402V345.641H233.545V347.641ZM235.402 346.641V347.301H237.402V346.641H235.402ZM236.402 346.301H232.525V348.301H236.402V346.301Z" fill="#778690"/>
<path d="M262.656 278.007H263.656V277.007H262.656V278.007ZM262.656 284.152V285.152H263.656V284.152H262.656ZM261.912 284.152H260.912V285.152H261.912V284.152ZM261.912 278.787H262.912V277.787H261.912V278.787ZM261.876 278.787V277.787H261.574L261.322 277.954L261.876 278.787ZM260.375 279.783H259.375V281.647L260.928 280.616L260.375 279.783ZM260.375 279.027L259.822 278.194L259.375 278.49V279.027H260.375ZM261.912 278.007V277.007H261.61L261.358 277.173L261.912 278.007ZM261.656 278.007V284.152H263.656V278.007H261.656ZM262.656 283.152H261.912V285.152H262.656V283.152ZM262.912 284.152V278.787H260.912V284.152H262.912ZM261.912 277.787H261.876V279.787H261.912V277.787ZM261.322 277.954L259.822 278.95L260.928 280.616L262.429 279.62L261.322 277.954ZM261.375 279.783V279.027H259.375V279.783H261.375ZM260.928 279.86L262.465 278.84L261.358 277.173L259.822 278.194L260.928 279.86ZM261.912 279.007H262.656V277.007H261.912V279.007ZM266.584 278.007H267.584V277.007H266.584V278.007ZM266.584 284.152V285.152H267.584V284.152H266.584ZM265.84 284.152H264.84V285.152H265.84V284.152ZM265.84 278.787H266.84V277.787H265.84V278.787ZM265.804 278.787V277.787H265.502L265.25 277.954L265.804 278.787ZM264.303 279.783H263.303V281.647L264.856 280.616L264.303 279.783ZM264.303 279.027L263.75 278.194L263.303 278.49V279.027H264.303ZM265.84 278.007V277.007H265.538L265.286 277.173L265.84 278.007ZM265.584 278.007V284.152H267.584V278.007H265.584ZM266.584 283.152H265.84V285.152H266.584V283.152ZM266.84 284.152V278.787H264.84V284.152H266.84ZM265.84 277.787H265.804V279.787H265.84V277.787ZM265.25 277.954L263.75 278.95L264.856 280.616L266.357 279.62L265.25 277.954ZM265.303 279.783V279.027H263.303V279.783H265.303ZM264.856 279.86L266.393 278.84L265.286 277.173L263.75 278.194L264.856 279.86ZM265.84 279.007H266.584V277.007H265.84V279.007Z" fill="#778690"/>
<path d="M327.729 232.721H328.729V231.721H327.729V232.721ZM327.729 238.866V239.866H328.729V238.866H327.729ZM326.984 238.866H325.984V239.866H326.984V238.866ZM326.984 233.501H327.984V232.501H326.984V233.501ZM326.948 233.501V232.501H326.647L326.395 232.668L326.948 233.501ZM325.448 234.497H324.448V236.361L326.001 235.33L325.448 234.497ZM325.448 233.741L324.895 232.908L324.448 233.205V233.741H325.448ZM326.984 232.721V231.721H326.683L326.431 231.888L326.984 232.721ZM326.729 232.721V238.866H328.729V232.721H326.729ZM327.729 237.866H326.984V239.866H327.729V237.866ZM327.984 238.866V233.501H325.984V238.866H327.984ZM326.984 232.501H326.948V234.501H326.984V232.501ZM326.395 232.668L324.895 233.664L326.001 235.33L327.502 234.334L326.395 232.668ZM326.448 234.497V233.741H324.448V234.497H326.448ZM326.001 234.574L327.538 233.554L326.431 231.888L324.895 232.908L326.001 234.574ZM326.984 233.721H327.729V231.721H326.984V233.721ZM330.345 238.581L329.73 239.37L329.733 239.372L330.345 238.581ZM329.616 237.504L328.674 237.839L328.674 237.84L329.616 237.504ZM329.616 234.092L328.675 233.753L328.674 233.755L329.616 234.092ZM330.348 233.012L330.963 233.8L330.964 233.8L330.348 233.012ZM332.65 233.012L332.032 233.798L332.037 233.802L332.65 233.012ZM333.382 234.092L332.44 234.427L332.442 234.432L333.382 234.092ZM333.385 237.504L334.327 237.84L334.327 237.839L333.385 237.504ZM332.656 238.581L333.268 239.372L333.271 239.37L332.656 238.581ZM332.545 237.642L331.677 237.144L332.545 237.642ZM332.746 234.434L331.788 234.721L331.789 234.726L332.746 234.434ZM332.26 233.579L331.577 234.31L331.581 234.313L332.26 233.579ZM330.459 233.942L331.327 234.439L331.328 234.438L330.459 233.942ZM330.252 237.15L329.295 237.438L330.252 237.15ZM330.735 237.999L330.057 238.733L330.06 238.737L330.735 237.999ZM331.5 237.95C331.241 237.95 331.078 237.884 330.957 237.79L329.733 239.372C330.248 239.77 330.856 239.95 331.5 239.95V237.95ZM330.96 237.792C330.824 237.686 330.677 237.501 330.558 237.167L328.674 237.84C328.891 238.447 329.231 238.98 329.73 239.37L330.96 237.792ZM330.558 237.168C330.439 236.833 330.364 236.383 330.364 235.793H328.364C328.364 236.54 328.457 237.23 328.674 237.839L330.558 237.168ZM330.364 235.793C330.364 235.208 330.439 234.762 330.558 234.429L328.674 233.755C328.457 234.363 328.364 235.05 328.364 235.793H330.364ZM330.557 234.431C330.678 234.093 330.826 233.907 330.963 233.8L329.733 232.223C329.234 232.613 328.894 233.147 328.675 233.753L330.557 234.431ZM330.964 233.8C331.09 233.701 331.251 233.637 331.5 233.637V231.637C330.854 231.637 330.247 231.822 329.733 232.224L330.964 233.8ZM331.5 233.637C331.75 233.637 331.909 233.701 332.032 233.798L333.268 232.226C332.754 231.822 332.147 231.637 331.5 231.637V233.637ZM332.037 233.802C332.174 233.908 332.321 234.092 332.44 234.427L334.324 233.757C334.107 233.147 333.766 232.611 333.262 232.221L332.037 233.802ZM332.442 234.432C332.562 234.764 332.637 235.209 332.637 235.793H334.637C334.637 235.049 334.542 234.36 334.322 233.752L332.442 234.432ZM332.637 235.793C332.637 236.383 332.562 236.833 332.443 237.168L334.327 237.839C334.544 237.23 334.637 236.54 334.637 235.793H332.637ZM332.443 237.167C332.324 237.501 332.177 237.686 332.041 237.792L333.271 239.37C333.77 238.98 334.11 238.447 334.327 237.84L332.443 237.167ZM332.044 237.79C331.923 237.884 331.76 237.95 331.5 237.95V239.95C332.145 239.95 332.753 239.77 333.268 239.372L332.044 237.79ZM331.5 239.29C332.353 239.29 333.01 238.84 333.412 238.14L331.677 237.144C331.618 237.247 331.576 237.275 331.57 237.278C331.566 237.281 331.562 237.283 331.556 237.284C331.549 237.286 331.532 237.29 331.5 237.29V239.29ZM333.412 238.14C333.785 237.491 333.917 236.673 333.917 235.793H331.917C331.917 236.514 331.801 236.929 331.677 237.144L333.412 238.14ZM333.917 235.793C333.917 235.195 333.853 234.638 333.702 234.142L331.789 234.726C331.866 234.978 331.917 235.327 331.917 235.793H333.917ZM333.704 234.147C333.558 233.66 333.32 233.198 332.938 232.845L331.581 234.313C331.623 234.352 331.71 234.46 331.788 234.721L333.704 234.147ZM332.942 232.848C332.541 232.473 332.041 232.285 331.5 232.285V234.285C331.536 234.285 331.55 234.29 331.551 234.291C331.553 234.291 331.555 234.292 331.558 234.294C331.561 234.296 331.568 234.301 331.577 234.31L332.942 232.848ZM331.5 232.285C330.642 232.285 329.99 232.747 329.591 233.446L331.328 234.438C331.39 234.329 331.434 234.299 331.441 234.295C331.445 234.292 331.448 234.291 331.452 234.29C331.458 234.288 331.472 234.285 331.5 234.285V232.285ZM329.592 233.444C329.218 234.096 329.084 234.913 329.084 235.793H331.084C331.084 235.077 331.2 234.66 331.327 234.439L329.592 233.444ZM329.084 235.793C329.084 236.39 329.146 236.945 329.295 237.438L331.21 236.861C331.134 236.61 331.084 236.261 331.084 235.793H329.084ZM329.295 237.438C329.44 237.922 329.677 238.382 330.057 238.733L331.414 237.264C331.374 237.227 331.288 237.122 331.21 236.861L329.295 237.438ZM330.06 238.737C330.464 239.106 330.963 239.29 331.5 239.29V237.29C331.462 237.29 331.445 237.284 331.441 237.283C331.438 237.281 331.428 237.278 331.41 237.261L330.06 238.737Z" fill="#778690"/>
<path d="M411.481 230.085L411.467 231.085L411.473 231.085L411.481 230.085ZM412.237 230.229L412.587 229.292L412.587 229.292L412.237 230.229ZM412.928 230.697L412.204 231.387L412.207 231.391L412.928 230.697ZM413.429 231.582L412.481 231.901V231.901L413.429 231.582ZM413.462 234.445L412.491 234.207L412.49 234.21L413.462 234.445ZM413.018 235.513L412.186 234.957L412.184 234.961L413.018 235.513ZM412.315 236.173L411.838 235.295L411.835 235.296L412.315 236.173ZM410.464 236.194L410.006 237.083L410.014 237.087L410.464 236.194ZM409.804 235.621L408.981 236.19L408.987 236.197L409.804 235.621ZM409.477 234.766V233.766H408.318L408.488 234.912L409.477 234.766ZM410.209 234.766L411.183 234.538L411.002 233.766H410.209V234.766ZM410.602 235.465L409.918 236.194L409.925 236.201L410.602 235.465ZM412.508 235.117L411.675 234.562L411.674 234.565L412.508 235.117ZM412.922 233.362H413.922V232.362H412.922V233.362ZM412.874 233.362V232.362H412.338L412.042 232.807L412.874 233.362ZM410.392 233.917L409.876 234.773L409.883 234.777L410.392 233.917ZM409.69 233.193L408.819 233.685L408.823 233.692L409.69 233.193ZM409.681 231.105L408.801 230.629L408.8 230.631L409.681 231.105ZM410.395 230.355L409.878 229.499L409.876 229.5L410.395 230.355ZM410.8 230.934L411.327 231.784L411.329 231.782L410.8 230.934ZM410.323 231.438L409.449 230.952L409.448 230.955L410.323 231.438ZM410.317 232.836L409.435 233.307L409.44 233.317L410.317 232.836ZM410.782 233.335L410.247 234.18L410.258 234.186L410.782 233.335ZM411.988 233.407L412.4 234.318L412.409 234.314L411.988 233.407ZM412.418 233.097L411.689 232.413L411.688 232.413L412.418 233.097ZM412.709 232.65L413.63 233.039L413.632 233.035L412.709 232.65ZM412.64 231.45L411.761 231.927L411.764 231.934L412.64 231.45ZM412.165 230.94L411.62 231.778L411.624 231.781L412.165 230.94ZM411.473 231.085C411.601 231.086 411.738 231.11 411.888 231.166L412.587 229.292C412.233 229.16 411.866 229.088 411.489 229.085L411.473 231.085ZM411.888 231.166C411.982 231.201 412.088 231.265 412.204 231.387L413.651 230.007C413.351 229.692 412.997 229.445 412.587 229.292L411.888 231.166ZM412.207 231.391C412.286 231.472 412.388 231.625 412.481 231.901L414.376 231.263C414.217 230.791 413.986 230.354 413.648 230.003L412.207 231.391ZM412.481 231.901C412.561 232.139 412.618 232.491 412.618 232.989H414.618C414.618 232.359 414.548 231.774 414.376 231.263L412.481 231.901ZM412.618 232.989C412.618 233.474 412.571 233.877 412.491 234.207L414.433 234.683C414.56 234.164 414.618 233.597 414.618 232.989H412.618ZM412.49 234.21C412.409 234.544 412.301 234.785 412.186 234.957L413.849 236.069C414.122 235.66 414.311 235.189 414.434 234.68L412.49 234.21ZM412.184 234.961C412.072 235.13 411.955 235.231 411.838 235.295L412.793 237.052C413.228 236.816 413.579 236.477 413.851 236.065L412.184 234.961ZM411.835 235.296C411.724 235.357 411.582 235.398 411.385 235.398V237.398C411.881 237.398 412.359 237.289 412.796 237.05L411.835 235.296ZM411.385 235.398C411.176 235.398 411.026 235.358 410.914 235.301L410.014 237.087C410.442 237.303 410.907 237.398 411.385 237.398V235.398ZM410.922 235.305C410.796 235.24 410.699 235.156 410.621 235.045L408.987 236.197C409.252 236.574 409.596 236.872 410.006 237.083L410.922 235.305ZM410.627 235.053C410.552 234.944 410.494 234.806 410.466 234.619L408.488 234.912C408.556 235.373 408.716 235.806 408.981 236.19L410.627 235.053ZM409.477 235.766H410.209V233.766H409.477V235.766ZM409.235 234.994C409.343 235.452 409.567 235.865 409.918 236.194L411.287 234.736C411.245 234.697 411.207 234.644 411.183 234.538L409.235 234.994ZM409.925 236.201C410.344 236.586 410.865 236.738 411.385 236.738V234.738C411.316 234.738 411.284 234.728 411.276 234.726C411.271 234.724 411.271 234.724 411.274 234.725C411.276 234.726 411.278 234.728 411.279 234.729L409.925 236.201ZM411.385 236.738C412.214 236.738 412.893 236.347 413.341 235.669L411.674 234.565C411.574 234.715 411.505 234.738 411.385 234.738V236.738ZM413.34 235.672C413.768 235.028 413.922 234.219 413.922 233.362H411.922C411.922 234.016 411.799 234.377 411.675 234.562L413.34 235.672ZM412.922 232.362H412.874V234.362H412.922V232.362ZM412.042 232.807C411.986 232.89 411.923 232.957 411.854 233.013L413.095 234.58C413.334 234.392 413.537 234.169 413.706 233.916L412.042 232.807ZM411.854 233.013C411.788 233.065 411.715 233.105 411.63 233.135L412.293 235.022C412.584 234.92 412.853 234.772 413.095 234.58L411.854 233.013ZM411.63 233.135C411.555 233.161 411.468 233.178 411.361 233.178V235.178C411.679 235.178 411.992 235.128 412.293 235.022L411.63 233.135ZM411.361 233.178C411.183 233.178 411.036 233.136 410.901 233.056L409.883 234.777C410.336 235.045 410.836 235.178 411.361 235.178V233.178ZM410.908 233.06C410.767 232.975 410.651 232.859 410.557 232.695L408.823 233.692C409.081 234.14 409.433 234.506 409.876 234.773L410.908 233.06ZM410.561 232.702C410.481 232.561 410.429 232.382 410.429 232.137H408.429C408.429 232.685 408.551 233.21 408.819 233.685L410.561 232.702ZM410.429 232.137C410.429 231.916 410.477 231.737 410.561 231.579L408.8 230.631C408.549 231.098 408.429 231.606 408.429 232.137H410.429ZM410.56 231.581C410.646 231.423 410.759 231.304 410.914 231.209L409.876 229.5C409.419 229.778 409.056 230.159 408.801 230.629L410.56 231.581ZM410.912 231.211C411.036 231.136 411.208 231.081 411.467 231.085L411.496 229.085C410.922 229.077 410.37 229.202 409.878 229.499L410.912 231.211ZM411.481 229.745C411.054 229.745 410.641 229.855 410.271 230.085L411.329 231.782C411.363 231.761 411.405 231.745 411.481 231.745V229.745ZM410.273 230.084C409.924 230.301 409.647 230.596 409.449 230.952L411.197 231.924C411.235 231.856 411.276 231.815 411.327 231.784L410.273 230.084ZM409.448 230.955C409.244 231.323 409.149 231.724 409.149 232.137H411.149C411.149 232.039 411.17 231.974 411.198 231.922L409.448 230.955ZM409.149 232.137C409.149 232.545 409.24 232.941 409.435 233.307L411.199 232.366C411.17 232.311 411.149 232.242 411.149 232.137H409.149ZM409.44 233.317C409.634 233.67 409.905 233.963 410.247 234.18L411.317 232.489C411.267 232.458 411.228 232.419 411.194 232.356L409.44 233.317ZM410.258 234.186C410.626 234.413 411.036 234.518 411.457 234.518V232.518C411.374 232.518 411.334 232.5 411.307 232.483L410.258 234.186ZM411.457 234.518C411.781 234.518 412.099 234.454 412.4 234.318L411.577 232.495C411.55 232.507 411.514 232.518 411.457 232.518V234.518ZM412.409 234.314C412.687 234.185 412.936 234.007 413.147 233.782L411.688 232.413C411.655 232.448 411.617 232.476 411.568 232.499L412.409 234.314ZM413.146 233.782C413.351 233.564 413.514 233.315 413.63 233.039L411.787 232.262C411.763 232.318 411.732 232.367 411.689 232.413L413.146 233.782ZM413.632 233.035C413.752 232.745 413.814 232.439 413.814 232.125H411.814C411.814 232.175 411.805 232.22 411.785 232.266L413.632 233.035ZM413.814 232.125C413.814 231.716 413.713 231.325 413.515 230.967L411.764 231.934C411.798 231.996 411.814 232.054 411.814 232.125H413.814ZM413.518 230.973C413.324 230.614 413.049 230.32 412.707 230.099L411.624 231.781C411.686 231.82 411.727 231.866 411.761 231.927L413.518 230.973ZM412.71 230.101C412.336 229.858 411.916 229.745 411.481 229.745V231.745C411.559 231.745 411.595 231.762 411.62 231.778L412.71 230.101Z" fill="#778690"/>
<path d="M479.93 276.989L479.503 277.894L479.51 277.897L479.93 276.989ZM479.195 276.38L478.366 276.941L478.368 276.944L479.195 276.38ZM478.933 275.492L479.934 275.498L479.933 275.484L478.933 275.492ZM479.087 274.772L479.991 275.199L479.992 275.196L479.087 274.772ZM479.513 274.217L480.148 274.989L480.149 274.989L479.513 274.217ZM480.122 273.932L480.298 274.916L481.122 274.769V273.932H480.122ZM480.122 273.896H481.122V273.121L480.372 272.928L480.122 273.896ZM479.42 273.401L478.593 273.963L478.595 273.966L479.42 273.401ZM479.162 272.527L480.162 272.534L480.162 272.521L479.162 272.527ZM479.399 271.69L480.237 272.235H480.237L479.399 271.69ZM480.059 271.108L479.609 270.215L479.606 270.216L480.059 271.108ZM482.636 271.69L481.798 272.235L481.801 272.24L482.636 271.69ZM482.882 272.527L483.882 272.534L483.882 272.521L482.882 272.527ZM482.615 273.401L481.791 272.834L481.79 272.835L482.615 273.401ZM481.922 273.896L481.667 272.929L480.922 273.125V273.896H481.922ZM481.922 273.932H480.922V274.768L481.745 274.916L481.922 273.932ZM482.522 274.217L481.878 274.982L481.883 274.986L482.522 274.217ZM482.948 274.772L482.046 275.203L482.048 275.206L482.948 274.772ZM483.11 275.492L484.111 275.498L484.11 275.484L483.11 275.492ZM482.84 276.38L482.015 275.815L482.014 275.817L482.84 276.38ZM482.105 276.989L482.529 277.895L482.532 277.894L482.105 276.989ZM481.742 276.413L481.335 275.5H481.335L481.742 276.413ZM482.21 276.032L481.38 275.475H481.38L482.21 276.032ZM482.378 275.456L483.378 275.465L483.378 275.456L483.378 275.447L482.378 275.456ZM482.198 274.841L481.365 275.394H481.365L482.198 274.841ZM481.715 274.421L481.264 275.314L481.268 275.315L481.715 274.421ZM480.32 274.421L479.876 273.525L479.873 273.526L480.32 274.421ZM479.837 274.841L479.003 274.288L478.999 274.295L479.837 274.841ZM479.666 275.456L480.666 275.465L480.666 275.456L480.666 275.447L479.666 275.456ZM479.825 276.032L478.989 276.582L478.994 276.589L479.825 276.032ZM480.296 276.413L480.699 275.498L480.296 276.413ZM481.607 273.5L481.152 272.609L481.147 272.612L481.607 273.5ZM482.012 273.131L482.862 273.658V273.658L482.012 273.131ZM482.162 272.575L483.162 272.585L483.162 272.575L483.162 272.566L482.162 272.575ZM482.015 272.032L481.164 272.556L481.167 272.561L482.015 272.032ZM481.616 271.672L481.165 272.565L481.173 272.569L481.616 271.672ZM480.419 271.672L480.858 272.571L480.866 272.567L480.419 271.672ZM480.02 272.032L480.873 272.553L480.876 272.548L480.02 272.032ZM479.882 272.575L480.882 272.585L480.882 272.575L480.882 272.566L479.882 272.575ZM480.023 273.131L479.168 273.65L479.173 273.658L480.023 273.131ZM481.022 276.209C480.728 276.209 480.512 276.157 480.349 276.082L479.51 277.897C479.98 278.114 480.491 278.209 481.022 278.209V276.209ZM480.356 276.085C480.185 276.004 480.085 275.912 480.021 275.817L478.368 276.944C478.656 277.365 479.046 277.679 479.503 277.894L480.356 276.085ZM480.023 275.82C479.966 275.737 479.933 275.641 479.933 275.498L477.933 275.486C477.93 276.008 478.071 276.504 478.366 276.941L480.023 275.82ZM479.933 275.484C479.933 275.364 479.955 275.274 479.991 275.199L478.182 274.345C478.01 274.71 477.93 275.1 477.934 275.5L479.933 275.484ZM479.992 275.196C480.036 275.102 480.089 275.038 480.148 274.989L478.878 273.444C478.577 273.692 478.345 273.998 478.181 274.348L479.992 275.196ZM480.149 274.989C480.203 274.944 480.249 274.925 480.298 274.916L479.946 272.947C479.546 273.019 479.186 273.19 478.877 273.445L480.149 274.989ZM481.122 273.932V273.896H479.122V273.932H481.122ZM480.372 272.928C480.315 272.913 480.284 272.893 480.245 272.835L478.595 273.966C478.903 274.416 479.34 274.727 479.871 274.864L480.372 272.928ZM480.247 272.838C480.193 272.759 480.161 272.668 480.162 272.534L478.162 272.521C478.158 273.039 478.298 273.53 478.593 273.963L480.247 272.838ZM480.162 272.521C480.161 272.392 480.19 272.307 480.237 272.235L478.56 271.145C478.287 271.566 478.158 272.039 478.162 272.534L480.162 272.521ZM480.237 272.235C480.294 272.147 480.377 272.068 480.511 272L479.606 270.216C479.181 270.432 478.823 270.741 478.56 271.145L480.237 272.235ZM480.508 272.001C480.633 271.939 480.796 271.895 481.022 271.895V269.895C480.528 269.895 480.049 269.993 479.609 270.215L480.508 272.001ZM481.022 271.895C481.242 271.895 481.402 271.938 481.524 272L482.429 270.216C481.99 269.994 481.514 269.895 481.022 269.895V271.895ZM481.524 272C481.658 272.068 481.741 272.147 481.798 272.235L483.475 271.145C483.212 270.741 482.854 270.432 482.429 270.216L481.524 272ZM481.801 272.24C481.85 272.315 481.882 272.403 481.882 272.534L483.882 272.521C483.879 272.028 483.746 271.558 483.472 271.14L481.801 272.24ZM481.882 272.521C481.882 272.658 481.848 272.751 481.791 272.834L483.439 273.967C483.735 273.538 483.879 273.049 483.882 272.534L481.882 272.521ZM481.79 272.835C481.747 272.899 481.715 272.916 481.667 272.929L482.177 274.863C482.706 274.723 483.136 274.41 483.44 273.966L481.79 272.835ZM480.922 273.896V273.932H482.922V273.896H480.922ZM481.745 274.916C481.789 274.924 481.829 274.94 481.878 274.982L483.167 273.452C482.859 273.193 482.499 273.02 482.1 272.948L481.745 274.916ZM481.883 274.986C481.943 275.036 481.998 275.103 482.046 275.203L483.851 274.341C483.687 273.997 483.458 273.694 483.162 273.448L481.883 274.986ZM482.048 275.206C482.085 275.284 482.11 275.378 482.11 275.5L484.11 275.484C484.107 275.086 484.024 274.7 483.849 274.338L482.048 275.206ZM482.11 275.486C482.11 275.63 482.074 275.729 482.015 275.815L483.666 276.945C483.963 276.511 484.107 276.018 484.11 275.498L482.11 275.486ZM482.014 275.817C481.95 275.912 481.85 276.004 481.679 276.085L482.532 277.894C482.988 277.679 483.379 277.365 483.666 276.944L482.014 275.817ZM481.681 276.084C481.525 276.157 481.313 276.209 481.022 276.209V278.209C481.551 278.209 482.061 278.114 482.529 277.895L481.681 276.084ZM481.022 277.548C481.405 277.548 481.791 277.487 482.149 277.327L481.335 275.5C481.29 275.52 481.195 275.548 481.022 275.548V277.548ZM482.149 277.327C482.502 277.17 482.814 276.928 483.041 276.589L481.38 275.475C481.381 275.473 481.382 275.473 481.379 275.475C481.376 275.478 481.364 275.487 481.335 275.5L482.149 277.327ZM483.041 276.589C483.272 276.245 483.375 275.857 483.378 275.465L481.378 275.447C481.378 275.461 481.377 275.471 481.376 275.477C481.376 275.482 481.375 275.485 481.375 275.485C481.375 275.485 481.375 275.484 481.376 275.481C481.377 275.479 481.379 275.477 481.38 275.475L483.041 276.589ZM483.378 275.447C483.375 275.039 483.266 274.642 483.032 274.288L481.365 275.394C481.367 275.396 481.378 275.409 481.378 275.465L483.378 275.447ZM483.032 274.288C482.81 273.955 482.512 273.701 482.162 273.526L481.268 275.315C481.327 275.345 481.35 275.371 481.365 275.394L483.032 274.288ZM482.166 273.528C481.805 273.346 481.415 273.268 481.022 273.268V275.268C481.149 275.268 481.222 275.292 481.264 275.314L482.166 273.528ZM481.022 273.268C480.628 273.268 480.238 273.345 479.876 273.525L480.764 275.317C480.813 275.292 480.892 275.268 481.022 275.268V273.268ZM479.873 273.526C479.523 273.701 479.224 273.955 479.003 274.288L480.67 275.394C480.685 275.371 480.708 275.345 480.767 275.315L479.873 273.526ZM478.999 274.295C478.766 274.653 478.662 275.055 478.666 275.465L480.666 275.447C480.665 275.417 480.669 275.401 480.67 275.396C480.672 275.392 480.672 275.39 480.674 275.387L478.999 274.295ZM478.666 275.447C478.662 275.841 478.759 276.233 478.99 276.582L480.66 275.482C480.662 275.485 480.663 275.488 480.665 275.492C480.667 275.496 480.668 275.498 480.668 275.499C480.669 275.501 480.665 275.492 480.666 275.465L478.666 275.447ZM478.994 276.589C479.223 276.93 479.538 277.172 479.892 277.328L480.699 275.498C480.67 275.485 480.657 275.476 480.654 275.473C480.651 275.471 480.653 275.472 480.655 275.475L478.994 276.589ZM479.892 277.328C480.251 277.487 480.637 277.548 481.022 277.548V275.548C480.847 275.548 480.748 275.52 480.699 275.498L479.892 277.328ZM481.022 274.632C481.378 274.632 481.735 274.56 482.067 274.388L481.147 272.612C481.139 272.616 481.106 272.632 481.022 272.632V274.632ZM482.063 274.39C482.39 274.222 482.664 273.977 482.862 273.658L481.162 272.603C481.162 272.605 481.161 272.605 481.162 272.604C481.163 272.604 481.163 272.603 481.164 272.602C481.165 272.602 481.164 272.602 481.163 272.603C481.161 272.604 481.158 272.606 481.152 272.609L482.063 274.39ZM482.862 273.658C483.069 273.323 483.159 272.954 483.162 272.585L481.162 272.566C481.162 272.596 481.159 272.61 481.158 272.612C481.158 272.614 481.158 272.613 481.159 272.611C481.159 272.609 481.161 272.606 481.162 272.603L482.862 273.658ZM483.162 272.566C483.159 272.201 483.071 271.835 482.864 271.503L481.167 272.561C481.164 272.557 481.162 272.554 481.161 272.55C481.159 272.547 481.159 272.545 481.159 272.545C481.159 272.545 481.162 272.557 481.162 272.585L483.162 272.566ZM482.867 271.508C482.669 271.186 482.391 270.94 482.059 270.776L481.173 272.569C481.177 272.571 481.179 272.572 481.178 272.572C481.178 272.571 481.176 272.57 481.174 272.568C481.171 272.565 481.169 272.563 481.167 272.561C481.165 272.558 481.164 272.557 481.164 272.556L482.867 271.508ZM482.068 270.78C481.734 270.611 481.376 270.543 481.022 270.543V272.543C481.12 272.543 481.158 272.561 481.165 272.565L482.068 270.78ZM481.022 270.543C480.667 270.543 480.307 270.61 479.972 270.778L480.866 272.567C480.875 272.562 480.917 272.543 481.022 272.543V270.543ZM479.98 270.774C479.644 270.938 479.362 271.186 479.163 271.516L480.876 272.548C480.875 272.55 480.873 272.553 480.87 272.557C480.867 272.561 480.863 272.565 480.86 272.568C480.852 272.574 480.85 272.575 480.858 272.571L479.98 270.774ZM479.166 271.511C478.961 271.848 478.878 272.219 478.882 272.585L480.882 272.566C480.881 272.538 480.884 272.528 480.884 272.53C480.884 272.531 480.883 272.534 480.881 272.538C480.879 272.543 480.876 272.548 480.873 272.553L479.166 271.511ZM478.882 272.566C478.878 272.936 478.962 273.31 479.168 273.65L480.877 272.611C480.88 272.615 480.882 272.619 480.883 272.622C480.884 272.625 480.885 272.627 480.885 272.627C480.885 272.627 480.881 272.614 480.882 272.585L478.882 272.566ZM479.173 273.658C479.371 273.977 479.645 274.222 479.972 274.39L480.883 272.609C480.877 272.606 480.874 272.604 480.872 272.603C480.871 272.602 480.87 272.602 480.871 272.602C480.872 272.603 480.872 272.604 480.873 272.604C480.874 272.605 480.873 272.605 480.873 272.603L479.173 273.658ZM479.972 274.39C480.306 274.561 480.665 274.632 481.022 274.632V272.632C480.931 272.632 480.893 272.615 480.883 272.609L479.972 274.39Z" fill="#778690"/>
<path d="M514.324 340.274L513.432 339.822L512.698 341.274H514.324V340.274ZM517.073 334.836L517.965 335.287L518.073 335.075V334.836H517.073ZM517.073 334.788H518.073V333.788H517.073V334.788ZM513.904 334.788H512.904V335.788H513.904V334.788ZM513.904 334.128V333.128H512.904V334.128H513.904ZM517.841 334.128H518.841V333.128H517.841V334.128ZM517.841 334.824L518.735 335.273L518.841 335.061V334.824H517.841ZM515.104 340.274V341.274H515.721L515.998 340.722L515.104 340.274ZM515.216 340.725L517.965 335.287L516.18 334.385L513.432 339.822L515.216 340.725ZM518.073 334.836V334.788H516.073V334.836H518.073ZM517.073 333.788H513.904V335.788H517.073V333.788ZM514.904 334.788V334.128H512.904V334.788H514.904ZM513.904 335.128H517.841V333.128H513.904V335.128ZM516.841 334.128V334.824H518.841V334.128H516.841ZM516.947 334.375L514.211 339.825L515.998 340.722L518.735 335.273L516.947 334.375ZM515.104 339.274H514.324V341.274H515.104V339.274Z" fill="#778690"/>
<path d="M516.172 408.61L516.157 409.61L516.163 409.61L516.172 408.61ZM515.416 408.466L515.073 409.406H515.073L515.416 408.466ZM514.726 408.001L513.999 408.688L514.003 408.692L514.726 408.001ZM514.225 407.11L513.277 407.428L513.277 407.429L514.225 407.11ZM514.189 404.247L515.161 404.483L515.161 404.482L514.189 404.247ZM514.633 403.182L515.463 403.741L515.464 403.738L514.633 403.182ZM515.335 402.522L514.858 401.643L514.855 401.645L515.335 402.522ZM517.187 402.504L516.729 403.393L516.737 403.397L517.187 402.504ZM517.847 403.074L518.667 402.502L518.667 402.502L517.847 403.074ZM518.177 403.917V404.917H519.346L519.165 403.762L518.177 403.917ZM517.445 403.917L516.474 404.156L516.661 404.917H517.445V403.917ZM517.049 403.23L516.368 403.963L516.368 403.963L517.049 403.23ZM515.143 403.578L514.309 403.026L514.307 403.029L515.143 403.578ZM514.732 405.322L513.732 405.319L513.729 406.322H514.732V405.322ZM514.78 405.322V406.322H515.319L515.615 405.872L514.78 405.322ZM515.179 404.886L515.794 405.675L515.795 405.674L515.179 404.886ZM517.259 404.769L516.743 405.626L516.747 405.628L517.259 404.769ZM517.961 405.493L517.093 405.989L517.094 405.991L517.961 405.493ZM517.97 407.59L518.849 408.066L518.851 408.064L517.97 407.59ZM517.253 408.34L517.768 409.197L517.77 409.196L517.253 408.34ZM516.851 407.761L516.321 406.913L516.318 406.915L516.851 407.761ZM517.328 407.254L516.454 406.768L516.45 406.774L517.328 407.254ZM517.334 405.853L516.451 406.323L516.457 406.333L517.334 405.853ZM516.869 405.352L516.334 406.197L516.338 406.199L516.869 405.352ZM515.665 405.28L516.077 406.191L516.086 406.187L515.665 405.28ZM515.233 405.586L514.51 404.895L514.504 404.901L515.233 405.586ZM514.945 406.033L515.867 406.421L515.868 406.417L514.945 406.033ZM515.011 407.242L514.13 407.716L514.134 407.722L515.011 407.242ZM515.485 407.755L514.94 408.594L514.944 408.596L515.485 407.755ZM516.188 407.61C516.055 407.608 515.913 407.583 515.759 407.527L515.073 409.406C515.424 409.534 515.786 409.604 516.157 409.61L516.188 407.61ZM515.759 407.527C515.668 407.494 515.565 407.432 515.45 407.311L514.003 408.692C514.304 409.007 514.66 409.255 515.073 409.406L515.759 407.527ZM515.453 407.314C515.369 407.226 515.266 407.068 515.173 406.791L513.277 407.429C513.436 407.901 513.667 408.336 513.999 408.688L515.453 407.314ZM515.173 406.792C515.093 406.552 515.036 406.196 515.036 405.694H513.036C513.036 406.327 513.105 406.915 513.277 407.428L515.173 406.792ZM515.036 405.694C515.036 405.21 515.082 404.809 515.161 404.483L513.217 404.011C513.092 404.526 513.036 405.089 513.036 405.694H515.036ZM515.161 404.482C515.242 404.148 515.349 403.909 515.463 403.741L513.804 402.623C513.529 403.031 513.34 403.503 513.217 404.012L515.161 404.482ZM515.464 403.738C515.579 403.566 515.698 403.463 515.815 403.399L514.855 401.645C514.424 401.881 514.075 402.218 513.802 402.626L515.464 403.738ZM515.813 403.401C515.928 403.338 516.072 403.297 516.269 403.297V401.297C515.773 401.297 515.295 401.406 514.858 401.643L515.813 403.401ZM516.269 403.297C516.476 403.297 516.621 403.338 516.729 403.393L517.645 401.615C517.216 401.394 516.749 401.297 516.269 401.297V403.297ZM516.737 403.397C516.861 403.46 516.953 403.54 517.026 403.646L518.667 402.502C518.401 402.12 518.052 401.82 517.637 401.611L516.737 403.397ZM517.026 403.646C517.103 403.755 517.161 403.892 517.189 404.073L519.165 403.762C519.093 403.307 518.931 402.881 518.667 402.502L517.026 403.646ZM518.177 402.917H517.445V404.917H518.177V402.917ZM518.416 403.678C518.304 403.225 518.077 402.82 517.729 402.497L516.368 403.963C516.412 404.004 516.449 404.057 516.474 404.156L518.416 403.678ZM517.729 402.497C517.311 402.109 516.789 401.957 516.269 401.957V403.957C516.337 403.957 516.369 403.967 516.376 403.969C516.38 403.97 516.379 403.97 516.376 403.969C516.373 403.967 516.37 403.964 516.368 403.963L517.729 402.497ZM516.269 401.957C515.44 401.957 514.759 402.347 514.309 403.026L515.977 404.13C516.076 403.981 516.145 403.957 516.269 403.957V401.957ZM514.307 403.029C513.887 403.669 513.734 404.469 513.732 405.319L515.732 405.324C515.734 404.678 515.855 404.316 515.979 404.127L514.307 403.029ZM514.732 406.322H514.78V404.322H514.732V406.322ZM515.615 405.872C515.67 405.789 515.729 405.725 515.794 405.675L514.565 404.098C514.321 404.288 514.115 404.514 513.945 404.771L515.615 405.872ZM515.795 405.674C515.865 405.62 515.941 405.578 516.027 405.548L515.364 403.661C515.074 403.763 514.806 403.909 514.563 404.099L515.795 405.674ZM516.027 405.548C516.103 405.521 516.189 405.505 516.293 405.505V403.505C515.976 403.505 515.664 403.556 515.364 403.661L516.027 405.548ZM516.293 405.505C516.469 405.505 516.611 405.547 516.743 405.626L517.775 403.913C517.322 403.64 516.82 403.505 516.293 403.505V405.505ZM516.747 405.628C516.884 405.71 516.998 405.824 517.093 405.989L518.829 404.996C518.571 404.546 518.217 404.177 517.771 403.91L516.747 405.628ZM517.094 405.991C517.173 406.128 517.225 406.303 517.225 406.546H519.225C519.225 405.997 519.101 405.47 518.828 404.994L517.094 405.991ZM517.225 406.546C517.225 406.771 517.176 406.955 517.089 407.116L518.851 408.064C519.104 407.594 519.225 407.081 519.225 406.546H517.225ZM517.091 407.114C517.006 407.27 516.893 407.39 516.736 407.484L517.77 409.196C518.229 408.919 518.594 408.538 518.849 408.066L517.091 407.114ZM516.737 407.483C516.614 407.558 516.441 407.613 516.182 407.61L516.163 409.61C516.732 409.616 517.28 409.491 517.768 409.197L516.737 407.483ZM516.172 408.95C516.6 408.95 517.013 408.841 517.384 408.607L516.318 406.915C516.288 406.934 516.249 406.95 516.172 406.95V408.95ZM517.38 408.61C517.73 408.391 518.008 408.094 518.205 407.734L516.45 406.774C516.416 406.838 516.375 406.879 516.321 406.913L517.38 408.61ZM518.202 407.74C518.408 407.369 518.505 406.964 518.505 406.546H516.505C516.505 406.648 516.483 406.715 516.454 406.768L518.202 407.74ZM518.505 406.546C518.505 406.136 518.411 405.738 518.211 405.372L516.457 406.333C516.484 406.384 516.505 406.448 516.505 406.546H518.505ZM518.216 405.382C518.023 405.021 517.748 404.723 517.399 404.504L516.338 406.199C516.385 406.229 516.42 406.264 516.451 406.323L518.216 405.382ZM517.403 404.507C517.033 404.273 516.621 404.166 516.196 404.166V406.166C516.276 406.166 516.312 406.183 516.334 406.197L517.403 404.507ZM516.196 404.166C515.869 404.166 515.547 404.232 515.245 404.372L516.086 406.187C516.111 406.175 516.144 406.166 516.196 406.166V404.166ZM515.254 404.368C514.973 404.495 514.723 404.672 514.51 404.895L515.957 406.276C515.992 406.239 516.03 406.212 516.077 406.191L515.254 404.368ZM514.504 404.901C514.298 405.121 514.137 405.372 514.022 405.648L515.868 406.417C515.893 406.358 515.924 406.311 515.962 406.27L514.504 404.901ZM514.024 405.644C513.901 405.936 513.84 406.243 513.84 406.558H515.84C515.84 406.504 515.85 406.462 515.867 406.421L514.024 405.644ZM513.84 406.558C513.84 406.965 513.937 407.356 514.13 407.716L515.892 406.768C515.857 406.704 515.84 406.639 515.84 406.558H513.84ZM514.134 407.722C514.328 408.077 514.6 408.372 514.94 408.594L516.03 406.917C515.971 406.878 515.926 406.831 515.888 406.762L514.134 407.722ZM514.944 408.596C515.318 408.837 515.738 408.95 516.172 408.95V406.95C516.095 406.95 516.056 406.933 516.026 406.914L514.944 408.596Z" fill="#778690"/>
<path d="M483.851 466.446L483.406 467.341L483.851 466.446ZM483.172 465.869L483.993 465.298L483.172 465.869ZM482.893 465.035V464.035H481.841L481.895 465.087L482.893 465.035ZM483.614 465.035L484.609 464.935L484.518 464.035H483.614V465.035ZM483.992 465.725L483.361 466.502L483.369 466.508L483.992 465.725ZM485.474 465.818L484.962 464.959L484.958 464.962L485.474 465.818ZM485.939 465.332L485.062 464.852L485.061 464.855L485.939 465.332ZM485.933 463.91L485.056 464.39L485.061 464.4L485.933 463.91ZM484.754 463.223L484.743 464.223L484.746 464.223L484.754 463.223ZM484.175 463.31L484.456 464.27L484.465 464.267L484.175 463.31ZM483.686 463.535L483.566 464.528L483.953 464.574L484.269 464.347L483.686 463.535ZM482.989 463.451L481.997 463.329L481.875 464.324L482.87 464.444L482.989 463.451ZM483.362 460.426V459.426H482.477L482.369 460.304L483.362 460.426ZM486.554 460.426H487.554V459.426H486.554V460.426ZM486.554 461.086V462.086H487.554V461.086H486.554ZM483.986 461.086V460.086H483.098L482.993 460.968L483.986 461.086ZM483.77 462.899L482.777 462.78L482.643 463.899H483.77V462.899ZM483.806 462.899V463.899H484.154L484.427 463.682L483.806 462.899ZM485.879 462.821L485.357 463.674L485.364 463.678L485.879 462.821ZM486.575 463.553L485.696 464.029L485.698 464.034L486.575 463.553ZM486.566 465.665L485.698 465.169L485.697 465.171L486.566 465.665ZM485.846 466.392L486.345 467.258L486.349 467.256L485.846 466.392ZM484.802 465.656C484.586 465.656 484.424 465.614 484.295 465.55L483.406 467.341C483.842 467.558 484.314 467.656 484.802 467.656V465.656ZM484.295 465.55C484.155 465.48 484.061 465.396 483.993 465.298L482.352 466.441C482.624 466.831 482.983 467.131 483.406 467.341L484.295 465.55ZM483.993 465.298C483.935 465.215 483.899 465.119 483.892 464.984L481.895 465.087C481.92 465.575 482.07 466.036 482.352 466.441L483.993 465.298ZM482.893 466.035H483.614V464.035H482.893V466.035ZM482.619 465.136C482.674 465.688 482.938 466.158 483.361 466.502L484.622 464.949C484.611 464.94 484.605 464.934 484.604 464.932C484.603 464.931 484.604 464.932 484.606 464.936C484.608 464.94 484.609 464.943 484.61 464.945C484.61 464.946 484.609 464.944 484.609 464.935L482.619 465.136ZM483.369 466.508C483.787 466.841 484.282 466.996 484.802 466.996V464.996C484.693 464.996 484.648 464.97 484.615 464.943L483.369 466.508ZM484.802 466.996C485.217 466.996 485.623 466.896 485.99 466.675L484.958 464.962C484.933 464.977 484.891 464.996 484.802 464.996V466.996ZM485.986 466.677C486.341 466.466 486.621 466.171 486.818 465.81L485.061 464.855C485.033 464.906 485.003 464.935 484.962 464.959L485.986 466.677ZM486.816 465.813C487.019 465.443 487.11 465.039 487.11 464.627H485.11C485.11 464.739 485.087 464.806 485.062 464.852L486.816 465.813ZM487.11 464.627C487.11 464.207 487.016 463.796 486.805 463.42L485.061 464.4C485.086 464.444 485.11 464.511 485.11 464.627H487.11ZM486.81 463.43C486.61 463.064 486.326 462.766 485.966 462.551L484.94 464.267C484.988 464.296 485.024 464.331 485.056 464.39L486.81 463.43ZM485.966 462.551C485.594 462.328 485.183 462.226 484.761 462.223L484.746 464.223C484.849 464.224 484.904 464.246 484.94 464.267L485.966 462.551ZM484.764 462.223C484.465 462.22 484.17 462.266 483.885 462.353L484.465 464.267C484.575 464.233 484.667 464.222 484.743 464.223L484.764 462.223ZM483.894 462.35C483.619 462.431 483.345 462.548 483.102 462.723L484.269 464.347C484.282 464.338 484.335 464.305 484.456 464.27L483.894 462.35ZM483.805 462.542L483.109 462.458L482.87 464.444L483.566 464.528L483.805 462.542ZM483.982 463.573L484.354 460.548L482.369 460.304L481.997 463.329L483.982 463.573ZM483.362 461.426H486.554V459.426H483.362V461.426ZM485.554 460.426V461.086H487.554V460.426H485.554ZM486.554 460.086H483.986V462.086H486.554V460.086ZM482.993 460.968L482.777 462.78L484.763 463.017L484.979 461.205L482.993 460.968ZM483.77 463.899H483.806V461.899H483.77V463.899ZM484.427 463.682C484.446 463.667 484.499 463.632 484.608 463.594L483.952 461.705C483.681 461.799 483.417 461.931 483.184 462.115L484.427 463.682ZM484.608 463.594C484.69 463.566 484.777 463.551 484.874 463.551V461.551C484.559 461.551 484.25 461.602 483.952 461.705L484.608 463.594ZM484.874 463.551C485.083 463.551 485.234 463.598 485.357 463.674L486.401 461.968C485.936 461.683 485.417 461.551 484.874 461.551V463.551ZM485.364 463.678C485.503 463.762 485.611 463.873 485.696 464.029L487.454 463.076C487.203 462.613 486.847 462.236 486.394 461.964L485.364 463.678ZM485.698 464.034C485.778 464.179 485.83 464.364 485.83 464.615H487.83C487.83 464.07 487.713 463.547 487.452 463.072L485.698 464.034ZM485.83 464.615C485.83 464.852 485.779 465.028 485.698 465.169L487.435 466.162C487.706 465.687 487.83 465.163 487.83 464.615H485.83ZM485.697 465.171C485.611 465.323 485.498 465.437 485.343 465.527L486.349 467.256C486.807 466.99 487.174 466.62 487.436 466.16L485.697 465.171ZM485.348 465.525C485.209 465.605 485.036 465.656 484.802 465.656V467.656C485.348 467.656 485.871 467.531 486.345 467.258L485.348 465.525Z" fill="#778690"/>
<path d="M422.768 509.321H421.768V510.321H422.768V509.321ZM422.768 508.709L421.923 508.175L421.768 508.42V508.709H422.768ZM425.469 504.436V503.436H424.918L424.624 503.902L425.469 504.436ZM425.913 504.436H426.913V503.436H425.913V504.436ZM425.913 505.384V506.384H426.913V505.384H425.913ZM425.613 505.384V504.384H425.062L424.768 504.85L425.613 505.384ZM423.572 508.613L422.727 508.079L422.572 508.324V508.613H423.572ZM423.572 508.661H422.572V509.661H423.572V508.661ZM427.209 508.661H428.209V507.661H427.209V508.661ZM427.209 509.321V510.321H428.209V509.321H427.209ZM425.661 510.582H424.661V511.582H425.661V510.582ZM425.661 504.436V503.436H424.661V504.436H425.661ZM426.369 504.436H427.369V503.436H426.369V504.436ZM426.369 510.582V511.582H427.369V510.582H426.369ZM423.768 509.321V508.709H421.768V509.321H423.768ZM423.614 509.243L426.314 504.97L424.624 503.902L421.923 508.175L423.614 509.243ZM425.469 505.436H425.913V503.436H425.469V505.436ZM424.913 504.436V505.384H426.913V504.436H424.913ZM425.913 504.384H425.613V506.384H425.913V504.384ZM424.768 504.85L422.727 508.079L424.418 509.147L426.458 505.919L424.768 504.85ZM422.572 508.613V508.661H424.572V508.613H422.572ZM423.572 509.661H427.209V507.661H423.572V509.661ZM426.209 508.661V509.321H428.209V508.661H426.209ZM427.209 508.321H422.768V510.321H427.209V508.321ZM426.661 510.582V509.135H424.661V510.582H426.661ZM426.661 509.135V508.85H424.661V509.135H426.661ZM426.661 508.85V504.436H424.661V508.85H426.661ZM425.661 505.436H426.369V503.436H425.661V505.436ZM425.369 504.436V510.582H427.369V504.436H425.369ZM426.369 509.582H425.661V511.582H426.369V509.582Z" fill="#778690"/>
<path d="M340.366 514.289L339.962 515.204L339.964 515.205L340.366 514.289ZM339.63 513.722L338.826 514.316L338.831 514.323L339.63 513.722ZM339.336 512.873V511.873H338.285L338.338 512.923L339.336 512.873ZM340.092 512.873L341.089 512.793L341.015 511.873H340.092V512.873ZM340.297 513.386L339.528 514.026L339.533 514.032L340.297 513.386ZM340.768 513.716L340.395 514.644H340.395L340.768 513.716ZM342.595 513.311L341.779 512.734V512.734L342.595 513.311ZM342.601 512.144L341.76 512.685L341.763 512.69L342.601 512.144ZM342.109 511.736L341.696 512.647L341.696 512.647L342.109 511.736ZM340.825 511.589H339.825V512.589H340.825V511.589ZM340.825 510.929V509.929H339.825V510.929H340.825ZM341.959 510.797L341.531 509.893L341.527 509.894L341.959 510.797ZM342.394 510.425L341.56 509.872L341.556 509.88L342.394 510.425ZM342.415 509.317L343.274 508.804L343.274 508.804L342.415 509.317ZM342.025 508.957L341.565 509.845L341.569 509.847L342.025 508.957ZM340.837 508.945L341.215 509.871L341.22 509.869L340.837 508.945ZM340.381 509.278L341.154 509.912L341.158 509.907L340.381 509.278ZM340.189 509.8V510.8H341.141L341.187 509.849L340.189 509.8ZM339.468 509.8L338.469 509.763L338.43 510.8H339.468V509.8ZM339.759 508.954L340.559 509.555L340.561 509.552L339.759 508.954ZM340.474 508.384L340.056 507.475L340.054 507.476L340.474 508.384ZM342.427 508.411L341.934 509.281L341.939 509.284L342.427 508.411ZM343.054 509.014L342.191 509.519L342.191 509.519L343.054 509.014ZM343 510.71L342.199 510.112L342.195 510.116L343 510.71ZM342.265 511.217L341.975 510.26L341.265 510.475V511.217H342.265ZM342.265 511.265H341.265V512.113L342.102 512.251L342.265 511.265ZM343.174 511.76L342.401 512.394L342.403 512.397L343.174 511.76ZM343.228 513.641L342.403 513.077L342.402 513.078L343.228 513.641ZM342.49 514.265L342.928 515.164V515.164L342.49 514.265ZM341.425 513.494C341.144 513.494 340.931 513.446 340.767 513.374L339.964 515.205C340.42 515.405 340.914 515.494 341.425 515.494V513.494ZM340.769 513.375C340.6 513.3 340.498 513.212 340.43 513.121L338.831 514.323C339.127 514.717 339.515 515.007 339.962 515.204L340.769 513.375ZM340.435 513.129C340.379 513.053 340.342 512.962 340.335 512.823L338.338 512.923C338.363 513.428 338.521 513.903 338.826 514.316L340.435 513.129ZM339.336 513.873H340.092V511.873H339.336V513.873ZM339.096 512.954C339.127 513.344 339.268 513.714 339.528 514.026L341.065 512.746C341.071 512.754 341.079 512.766 341.085 512.78C341.09 512.794 341.09 512.8 341.089 512.793L339.096 512.954ZM339.533 514.032C339.771 514.313 340.068 514.513 340.395 514.644L341.141 512.789C341.079 512.764 341.063 512.743 341.06 512.741L339.533 514.032ZM340.395 514.644C340.722 514.776 341.065 514.833 341.413 514.833V512.833C341.288 512.833 341.202 512.813 341.141 512.789L340.395 514.644ZM341.413 514.833C341.793 514.833 342.172 514.767 342.526 514.607L341.704 512.784C341.65 512.808 341.56 512.833 341.413 512.833V514.833ZM342.526 514.607C342.874 514.45 343.181 514.214 343.411 513.889L341.779 512.734C341.777 512.736 341.764 512.756 341.704 512.784L342.526 514.607ZM343.411 513.889C343.656 513.543 343.769 513.148 343.769 512.741H341.769C341.769 512.75 341.769 512.755 341.768 512.757C341.768 512.758 341.768 512.757 341.769 512.754C341.77 512.75 341.772 512.746 341.774 512.742C341.776 512.738 341.778 512.735 341.779 512.734L343.411 513.889ZM343.769 512.741C343.769 512.342 343.667 511.949 343.439 511.598L341.763 512.69C341.763 512.69 341.764 512.69 341.764 512.693C341.766 512.697 341.769 512.711 341.769 512.741H343.769ZM343.442 511.603C343.211 511.244 342.887 510.991 342.522 510.825L341.696 512.647C341.732 512.663 341.749 512.676 341.756 512.681C341.761 512.686 341.761 512.687 341.76 512.685L343.442 511.603ZM342.522 510.825C342.142 510.653 341.728 510.589 341.317 510.589V512.589C341.529 512.589 341.644 512.623 341.696 512.647L342.522 510.825ZM341.317 510.589H340.825V512.589H341.317V510.589ZM341.825 511.589V510.929H339.825V511.589H341.825ZM340.825 511.929H341.317V509.929H340.825V511.929ZM341.317 511.929C341.681 511.929 342.048 511.863 342.39 511.699L341.527 509.894C341.502 509.907 341.44 509.929 341.317 509.929V511.929ZM342.387 511.701C342.727 511.54 343.02 511.297 343.232 510.97L341.556 509.88C341.555 509.88 341.556 509.879 341.556 509.879C341.557 509.878 341.558 509.877 341.557 509.878C341.557 509.878 341.55 509.884 341.531 509.893L342.387 511.701ZM343.228 510.977C343.455 510.633 343.553 510.247 343.553 509.86H341.553C341.553 509.886 341.55 509.895 341.551 509.892C341.551 509.891 341.552 509.888 341.554 509.884C341.556 509.88 341.558 509.876 341.56 509.872L343.228 510.977ZM343.553 509.86C343.553 509.501 343.472 509.137 343.274 508.804L341.557 509.83C341.554 509.826 341.552 509.822 341.551 509.819C341.549 509.816 341.549 509.814 341.549 509.815C341.55 509.816 341.553 509.83 341.553 509.86H343.553ZM343.274 508.804C343.08 508.481 342.807 508.234 342.481 508.067L341.569 509.847C341.574 509.85 341.576 509.851 341.575 509.851C341.575 509.85 341.573 509.849 341.57 509.847C341.567 509.844 341.565 509.841 341.562 509.838C341.559 509.834 341.557 509.832 341.557 509.83L343.274 508.804ZM342.485 508.069C342.15 507.896 341.79 507.828 341.437 507.828V509.828C341.487 509.828 341.52 509.833 341.539 509.837C341.549 509.839 341.555 509.841 341.559 509.843C341.563 509.844 341.565 509.845 341.565 509.845L342.485 508.069ZM341.437 507.828C341.099 507.828 340.768 507.891 340.453 508.022L341.22 509.869C341.281 509.843 341.351 509.828 341.437 509.828V507.828ZM340.458 508.019C340.128 508.155 339.834 508.363 339.603 508.65L341.158 509.907C341.163 509.901 341.174 509.888 341.215 509.871L340.458 508.019ZM339.607 508.644C339.34 508.97 339.209 509.355 339.19 509.751L341.187 509.849C341.188 509.838 341.189 509.845 341.183 509.862C341.176 509.88 341.165 509.898 341.154 509.912L339.607 508.644ZM340.189 508.8H339.468V510.8H340.189V508.8ZM340.468 509.838C340.473 509.706 340.507 509.623 340.559 509.555L338.96 508.353C338.647 508.769 338.488 509.251 338.469 509.763L340.468 509.838ZM340.561 509.552C340.637 509.45 340.74 509.362 340.893 509.292L340.054 507.476C339.619 507.678 339.246 507.97 338.958 508.356L340.561 509.552ZM340.891 509.293C341.045 509.222 341.226 509.18 341.449 509.18V507.18C340.963 507.18 340.494 507.274 340.056 507.475L340.891 509.293ZM341.449 509.18C341.693 509.18 341.842 509.229 341.934 509.281L342.92 507.541C342.468 507.285 341.965 507.18 341.449 507.18V509.18ZM341.939 509.284C342.068 509.356 342.142 509.434 342.191 509.519L343.918 508.51C343.675 508.094 343.331 507.77 342.915 507.538L341.939 509.284ZM342.191 509.519C342.247 509.615 342.273 509.711 342.273 509.824H344.273C344.273 509.357 344.153 508.913 343.918 508.51L342.191 509.519ZM342.273 509.824C342.273 509.986 342.235 510.064 342.199 510.112L343.802 511.308C344.13 510.868 344.273 510.355 344.273 509.824H342.273ZM342.195 510.116C342.152 510.174 342.094 510.224 341.975 510.26L342.555 512.174C343.056 512.022 343.488 511.733 343.805 511.303L342.195 510.116ZM341.265 511.217V511.265H343.265V511.217H341.265ZM342.102 512.251C342.287 512.282 342.359 512.342 342.401 512.394L343.948 511.126C343.554 510.645 343.019 510.376 342.428 510.278L342.102 512.251ZM342.403 512.397C342.453 512.457 342.501 512.549 342.501 512.741H344.501C344.501 512.153 344.332 511.591 343.945 511.123L342.403 512.397ZM342.501 512.741C342.501 512.881 342.467 512.983 342.403 513.077L344.054 514.206C344.354 513.767 344.501 513.269 344.501 512.741H342.501ZM342.402 513.078C342.328 513.186 342.222 513.284 342.052 513.366L342.928 515.164C343.383 514.943 343.768 514.625 344.054 514.205L342.402 513.078ZM342.052 513.366C341.895 513.443 341.693 513.494 341.425 513.494V515.494C341.952 515.494 342.461 515.392 342.928 515.164L342.052 513.366Z" fill="#778690"/>
<path d="M565.181 239.169L564.239 240.131L562.276 242.094L563.218 243.056L564.455 241.819V244.627C564.452 246.644 563.692 248.586 562.325 250.069C560.958 251.552 559.084 252.468 557.074 252.635V236.461L558.291 237.678L559.253 236.735L556.407 233.889L555.445 234.831L553.482 236.794L554.424 237.736L555.661 236.519V252.694C553.649 252.532 551.772 251.617 550.405 250.133C549.037 248.649 548.278 246.704 548.28 244.685V241.878L549.497 243.115L550.459 242.153L547.671 239.169L547.534 239.307L544.825 242.016L545.767 242.978L546.984 241.741V244.548C546.988 246.924 547.891 249.21 549.512 250.947C551.132 252.684 553.35 253.743 555.72 253.911V256.62H552.363V257.955H555.72V260.644H557.054V257.955H560.411V256.62H557.054V253.911C559.42 253.738 561.633 252.677 563.25 250.94C564.866 249.204 565.766 246.92 565.77 244.548V241.741L567.007 242.978L567.949 242.016L565.181 239.169Z" stroke="#778690" stroke-width="2" stroke-miterlimit="10"/>
<path d="M187.523 486.819C185.25 486.821 183.002 487.302 180.928 488.232C184.647 488.504 188.125 490.173 190.664 492.904C193.202 495.635 194.613 499.226 194.613 502.955C194.613 506.683 193.202 510.274 190.664 513.005C188.125 515.736 184.647 517.405 180.928 517.677C183.114 518.627 185.485 519.08 187.868 519.002C190.251 518.925 192.587 518.319 194.707 517.228C196.827 516.137 198.678 514.589 200.127 512.696C201.576 510.802 202.586 508.61 203.084 506.279C203.583 503.947 203.557 501.534 203.009 499.214C202.461 496.893 201.404 494.724 199.915 492.862C198.426 491 196.542 489.492 194.399 488.447C192.256 487.402 189.907 486.846 187.523 486.819V486.819ZM187.523 517.677C187.052 517.677 186.561 517.677 186.09 517.677C188.936 516.41 191.354 514.345 193.051 511.732C194.748 509.119 195.651 506.07 195.651 502.955C195.651 499.839 194.748 496.791 193.051 494.178C191.354 491.565 188.936 489.5 186.09 488.232C186.568 488.203 187.046 488.203 187.523 488.232C191.242 488.504 194.72 490.173 197.259 492.904C199.798 495.635 201.209 499.226 201.209 502.955C201.209 506.683 199.798 510.274 197.259 513.005C194.72 515.736 191.242 517.405 187.523 517.677V517.677Z" stroke="#778690" stroke-width="2" stroke-miterlimit="10"/>
<path d="M306.323 159.315C304.074 159.315 301.876 159.983 300.006 161.232C298.137 162.482 296.68 164.258 295.821 166.336C294.961 168.414 294.737 170.7 295.177 172.906C295.617 175.111 296.702 177.136 298.293 178.725C299.885 180.313 301.912 181.394 304.118 181.831C306.324 182.267 308.61 182.039 310.686 181.176C312.762 180.313 314.536 178.853 315.783 176.981C317.029 175.11 317.692 172.91 317.689 170.661C317.689 169.17 317.394 167.693 316.823 166.315C316.252 164.937 315.414 163.685 314.358 162.632C313.303 161.578 312.05 160.742 310.671 160.173C309.292 159.604 307.815 159.313 306.323 159.315V159.315ZM306.323 181.065C304.265 181.065 302.254 180.455 300.543 179.312C298.832 178.169 297.499 176.544 296.711 174.643C295.924 172.742 295.718 170.65 296.119 168.632C296.52 166.614 297.511 164.76 298.966 163.305C300.421 161.85 302.275 160.859 304.293 160.458C306.311 160.056 308.403 160.262 310.304 161.05C312.205 161.837 313.83 163.171 314.973 164.881C316.117 166.592 316.727 168.604 316.727 170.661C316.727 173.421 315.631 176.067 313.68 178.018C311.728 179.969 309.082 181.065 306.323 181.065V181.065Z" stroke="#778690" stroke-width="2" stroke-miterlimit="10"/>
<path d="M306.323 169.248C305.948 169.248 305.589 169.397 305.324 169.662C305.059 169.927 304.91 170.287 304.91 170.661C304.91 171.036 305.059 171.396 305.324 171.661C305.589 171.926 305.948 172.075 306.323 172.075C306.698 172.075 307.057 171.926 307.322 171.661C307.587 171.396 307.736 171.036 307.736 170.661C307.736 170.287 307.587 169.927 307.322 169.662C307.057 169.397 306.698 169.248 306.323 169.248V169.248Z" stroke="#778690" stroke-width="2" stroke-miterlimit="10"/>
<path d="M387.139 166.127C385.547 166.127 383.991 165.655 382.668 164.771C381.344 163.886 380.312 162.629 379.703 161.159C379.094 159.688 378.935 158.07 379.245 156.509C379.556 154.947 380.322 153.513 381.448 152.388C382.573 151.262 384.008 150.496 385.569 150.185C387.13 149.875 388.748 150.034 390.219 150.643C391.689 151.252 392.946 152.284 393.831 153.607C394.715 154.931 395.187 156.487 395.187 158.079C395.187 160.213 394.339 162.26 392.83 163.77C391.321 165.279 389.273 166.127 387.139 166.127M396.522 158.079C396.521 156.204 395.96 154.373 394.91 152.82C393.861 151.267 392.371 150.063 390.633 149.363C392.541 148.589 394.141 147.21 395.187 145.437H393.577C392.828 146.437 391.856 147.248 390.738 147.807C389.621 148.366 388.388 148.656 387.139 148.656C385.889 148.656 384.657 148.366 383.54 147.807C382.422 147.248 381.45 146.437 380.7 145.437H379.091C380.143 147.205 381.741 148.583 383.645 149.363C381.669 150.15 380.018 151.584 378.964 153.431C377.91 155.279 377.515 157.429 377.844 159.531C378.172 161.632 379.205 163.559 380.773 164.997C382.34 166.434 384.35 167.296 386.471 167.442V170.151H383.115V171.506H386.471V174.175H387.806V171.506H391.163V170.151H387.806V167.442C390.176 167.278 392.394 166.219 394.012 164.481C395.631 162.742 396.528 160.454 396.522 158.079V158.079Z" stroke="#778690" stroke-width="2" stroke-miterlimit="10"/>
<path d="M600.024 431.993C600.024 432.525 599.866 433.045 599.571 433.487C599.275 433.929 598.855 434.274 598.364 434.477C597.872 434.681 597.332 434.734 596.81 434.631C596.288 434.527 595.809 434.271 595.433 433.895C595.057 433.518 594.801 433.039 594.697 432.518C594.593 431.996 594.646 431.455 594.85 430.964C595.054 430.472 595.398 430.052 595.841 429.757C596.283 429.461 596.803 429.304 597.335 429.304C597.688 429.301 598.039 429.369 598.367 429.503C598.694 429.637 598.992 429.835 599.242 430.085C599.492 430.336 599.69 430.633 599.825 430.961C599.959 431.288 600.027 431.639 600.024 431.993M606.835 412.363V410.95C605.009 411.497 603.391 412.585 602.195 414.071C601 415.557 600.284 417.371 600.142 419.273H598.179V411.912H596.746V419.273H594.783C594.644 417.373 593.932 415.559 592.74 414.073C591.549 412.587 589.933 411.498 588.109 410.95V412.363C589.677 412.918 591.035 413.946 591.995 415.305C592.956 416.663 593.471 418.286 593.471 419.95C593.471 421.614 592.956 423.237 591.995 424.595C591.035 425.954 589.677 426.982 588.109 427.537V428.95C589.933 428.402 591.549 427.313 592.74 425.827C593.932 424.341 594.644 422.527 594.783 420.627H596.746V428.047C595.75 428.215 594.854 428.75 594.235 429.547C593.616 430.344 593.319 431.345 593.403 432.351C593.487 433.356 593.946 434.294 594.689 434.977C595.431 435.661 596.404 436.04 597.413 436.04C598.422 436.04 599.395 435.661 600.138 434.977C600.88 434.294 601.339 433.356 601.423 432.351C601.507 431.345 601.21 430.344 600.591 429.547C599.972 428.75 599.076 428.215 598.081 428.047V420.627H600.044C600.186 422.529 600.902 424.343 602.097 425.829C603.292 427.315 604.91 428.403 606.737 428.95V427.537C605.169 426.982 603.811 425.954 602.851 424.595C601.89 423.237 601.375 421.614 601.375 419.95C601.375 418.286 601.89 416.663 602.851 415.305C603.811 413.946 605.169 412.918 606.737 412.363H606.835Z" stroke="#778690" stroke-width="2" stroke-miterlimit="10"/>
<path d="M577.96 475.139C579.289 475.143 580.589 474.753 581.695 474.017C582.802 473.282 583.665 472.235 584.177 471.009C584.688 469.782 584.823 468.432 584.567 467.128C584.31 465.825 583.672 464.627 582.734 463.686C581.796 462.745 580.6 462.104 579.297 461.843C577.994 461.582 576.643 461.714 575.415 462.222C574.187 462.729 573.138 463.59 572.399 464.694C571.661 465.798 571.266 467.097 571.266 468.426C571.266 470.203 571.971 471.908 573.226 473.166C574.481 474.424 576.183 475.134 577.96 475.139V475.139ZM577.96 463.067C579.02 463.067 580.056 463.381 580.937 463.97C581.819 464.559 582.506 465.396 582.911 466.375C583.317 467.354 583.423 468.432 583.216 469.471C583.009 470.511 582.499 471.466 581.749 472.215C581 472.965 580.045 473.475 579.006 473.682C577.966 473.889 576.889 473.782 575.909 473.377C574.93 472.971 574.093 472.284 573.504 471.403C572.916 470.522 572.601 469.486 572.601 468.426C572.606 467.006 573.173 465.646 574.177 464.642C575.18 463.638 576.54 463.072 577.96 463.067Z" stroke="#778690" stroke-width="2" stroke-miterlimit="10"/>
<path d="M587.363 468.426H586.008C586.008 470.56 585.16 472.607 583.651 474.117C582.142 475.626 580.094 476.474 577.96 476.474C575.825 476.474 573.778 475.626 572.269 474.117C570.76 472.607 569.912 470.56 569.912 468.426H568.577C568.576 470.8 569.475 473.085 571.092 474.823C572.709 476.56 574.925 477.62 577.293 477.789V480.498H573.936V481.833H577.293V484.522H578.647V481.833H581.984V480.498H578.647V477.789C581.015 477.62 583.23 476.56 584.848 474.823C586.465 473.085 587.364 470.8 587.363 468.426V468.426Z" stroke="#778690" stroke-width="2" stroke-miterlimit="10"/>
<path d="M486.485 175.942C486.488 174.109 485.956 172.315 484.953 170.781C483.951 169.247 482.521 168.039 480.842 167.306C479.162 166.574 477.304 166.348 475.498 166.657C473.691 166.966 472.014 167.796 470.673 169.045C469.332 170.295 468.385 171.909 467.95 173.689C467.514 175.469 467.608 177.338 468.22 179.065C468.832 180.793 469.936 182.304 471.395 183.413C472.855 184.521 474.606 185.179 476.435 185.305V188.014H473.078V189.349H476.435V192.038H477.77V189.349H481.126V188.014H477.77V185.305C480.137 185.136 482.353 184.076 483.97 182.339C485.588 180.601 486.486 178.316 486.485 175.942V175.942ZM469.054 175.942C469.054 174.35 469.526 172.794 470.41 171.471C471.295 170.147 472.552 169.115 474.022 168.506C475.493 167.897 477.111 167.738 478.672 168.048C480.233 168.359 481.667 169.125 482.793 170.251C483.919 171.376 484.685 172.811 484.996 174.372C485.306 175.933 485.147 177.551 484.538 179.022C483.929 180.492 482.897 181.749 481.573 182.634C480.25 183.518 478.694 183.99 477.102 183.99C474.968 183.99 472.92 183.142 471.411 181.633C469.902 180.123 469.054 178.076 469.054 175.942Z" stroke="#778690" stroke-width="2" stroke-miterlimit="10"/>
<path d="M536.934 239.484C535.343 239.48 533.789 239.004 532.468 238.118C531.147 237.231 530.118 235.973 529.512 234.502C528.906 233.031 528.749 231.413 529.062 229.853C529.375 228.293 530.143 226.861 531.269 225.737C532.396 224.614 533.83 223.849 535.39 223.54C536.951 223.231 538.568 223.392 540.038 224.002C541.507 224.611 542.763 225.643 543.646 226.966C544.53 228.289 545.002 229.844 545.002 231.435C545.002 232.494 544.793 233.542 544.387 234.52C543.981 235.498 543.387 236.386 542.637 237.133C541.888 237.881 540.998 238.473 540.02 238.877C539.041 239.28 537.992 239.486 536.934 239.484M547.455 219.579H540.761V220.914H546.513L543.097 224.349C541.261 222.756 538.878 221.939 536.451 222.068C534.023 222.198 531.741 223.264 530.084 225.043C528.427 226.822 527.526 229.174 527.569 231.605C527.612 234.035 528.597 236.354 530.316 238.073C532.034 239.792 534.353 240.777 536.784 240.82C539.214 240.863 541.567 239.961 543.345 238.304C545.124 236.648 546.191 234.365 546.32 231.938C546.45 229.511 545.632 227.128 544.04 225.291L547.455 221.876V227.706H548.81V219.657L547.455 219.579Z" stroke="#778690" stroke-width="2" stroke-miterlimit="10"/>
<path d="M533.577 262.333H528.218V254.284H526.864V262.333H519.64C521.402 261.276 522.769 259.671 523.531 257.763C524.292 255.855 524.407 253.749 523.856 251.77C523.306 249.79 522.121 248.047 520.483 246.806C518.845 245.565 516.846 244.896 514.791 244.901V246.236C515.848 246.236 516.895 246.444 517.871 246.849C518.848 247.253 519.735 247.846 520.482 248.593C521.23 249.341 521.822 250.228 522.227 251.204C522.631 252.181 522.84 253.227 522.84 254.284C522.84 255.341 522.631 256.388 522.227 257.364C521.822 258.341 521.23 259.228 520.482 259.975C519.735 260.723 518.848 261.316 517.871 261.72C516.895 262.124 515.848 262.333 514.791 262.333V262.333V263.667H526.864V270.381H528.218V263.667H533.577V262.333Z" stroke="#778690" stroke-width="2" stroke-miterlimit="10"/>
<path d="M170.465 459.023C168.817 459.017 167.198 459.451 165.774 460.279V456.353H169.13V455.019H165.774V452.329H164.439V455.019H161.082V456.353H164.439V463.086C165.33 462.081 166.459 461.315 167.723 460.858C168.987 460.4 170.345 460.267 171.673 460.469C173.002 460.672 174.258 461.204 175.328 462.016C176.399 462.829 177.248 463.897 177.8 465.122C178.351 466.348 178.587 467.692 178.486 469.032C178.385 470.371 177.95 471.665 177.221 472.794C176.491 473.922 175.491 474.85 174.311 475.493C173.131 476.136 171.809 476.473 170.465 476.474V477.828C172.882 477.718 175.163 476.68 176.834 474.931C178.506 473.181 179.438 470.855 179.438 468.436C179.438 466.016 178.506 463.69 176.834 461.941C175.163 460.191 172.882 459.153 170.465 459.043V459.023Z" stroke="#778690" stroke-width="2" stroke-miterlimit="10"/>
<path d="M124.1 379.228L141.629 358.499" stroke="#778690" stroke-width="2" stroke-miterlimit="10"/>
<path d="M124.1 378.914L141.629 399.643" stroke="#778690" stroke-width="2" stroke-miterlimit="10"/>
<path d="M364.879 124.728L385.608 142.277" stroke="#778690" stroke-width="2" stroke-miterlimit="10"/>
<path d="M365.193 124.728L344.464 142.277" stroke="#778690" stroke-width="2" stroke-miterlimit="10"/>
<path d="M377.01 505.212C447.814 505.212 505.212 447.814 505.212 377.01C505.212 306.206 447.814 248.808 377.01 248.808C306.206 248.808 248.808 306.206 248.808 377.01C248.808 447.814 306.206 505.212 377.01 505.212Z" stroke="#778690" stroke-width="2" stroke-miterlimit="10"/>
<path d="M271.095 474.875H270.095V475.875H271.095V474.875ZM271.095 474.335L270.357 473.66L270.095 473.947V474.335H271.095ZM273.124 472.114L272.386 471.439L272.386 471.44L273.124 472.114ZM273.712 471.436L274.492 472.062L274.495 472.058L273.712 471.436ZM274.054 470.89L273.139 470.486L273.137 470.491L274.054 470.89ZM274.012 469.789L273.172 470.331L273.177 470.339L274.012 469.789ZM273.592 469.423L274.027 468.522L274.027 468.522L273.592 469.423ZM272.374 469.441L272.857 470.316L272.86 470.314L272.374 469.441ZM271.969 469.846L271.093 469.363L271.089 469.371L271.969 469.846ZM271.828 470.458V471.458H272.828V470.458H271.828ZM271.119 470.458H270.119V471.458H271.119V470.458ZM271.368 469.51L272.222 470.031L272.222 470.031L271.368 469.51ZM272.047 468.874L271.58 467.989L271.577 467.991L272.047 468.874ZM273.973 468.874L274.453 467.996L274.453 467.996L273.973 468.874ZM274.741 471.013L273.806 470.658L273.805 470.663L274.741 471.013ZM274.321 471.73L273.524 471.126L273.523 471.127L274.321 471.73ZM273.496 472.691L274.226 473.373L274.228 473.372L273.496 472.691ZM272.116 474.167L271.385 473.484L271.116 473.772V474.167H272.116ZM272.116 474.215H271.116V475.215H272.116V474.215ZM274.972 474.215H275.972V473.215H274.972V474.215ZM274.972 474.875V475.875H275.972V474.875H274.972ZM272.095 474.875V474.335H270.095V474.875H272.095ZM271.834 475.009L273.862 472.789L272.386 471.44L270.357 473.66L271.834 475.009ZM273.861 472.79C274.109 472.52 274.32 472.276 274.492 472.062L272.932 470.811C272.796 470.98 272.615 471.189 272.386 471.439L273.861 472.79ZM274.495 472.058C274.686 471.817 274.853 471.561 274.971 471.289L273.137 470.491C273.107 470.56 273.046 470.667 272.929 470.815L274.495 472.058ZM274.969 471.294C275.101 470.995 275.168 470.677 275.168 470.35H273.168C273.168 470.399 273.159 470.441 273.139 470.486L274.969 471.294ZM275.168 470.35C275.168 469.967 275.074 469.583 274.847 469.239L273.177 470.339C273.174 470.334 273.171 470.33 273.169 470.325C273.167 470.32 273.166 470.317 273.166 470.316C273.165 470.313 273.168 470.322 273.168 470.35H275.168ZM274.852 469.246C274.645 468.926 274.362 468.684 274.027 468.522L273.157 470.323C273.164 470.327 273.169 470.329 273.171 470.331C273.173 470.332 273.174 470.333 273.174 470.333C273.173 470.332 273.173 470.332 273.172 470.331C273.171 470.33 273.171 470.33 273.172 470.331L274.852 469.246ZM274.027 468.522C273.697 468.363 273.346 468.294 272.992 468.294V470.294C273.082 470.294 273.13 470.31 273.157 470.323L274.027 468.522ZM272.992 468.294C272.615 468.294 272.236 468.373 271.887 468.567L272.86 470.314C272.864 470.312 272.897 470.294 272.992 470.294V468.294ZM271.891 468.565C271.551 468.752 271.28 469.024 271.093 469.363L272.844 470.329C272.847 470.324 272.848 470.322 272.849 470.321C272.849 470.321 272.849 470.321 272.849 470.321C272.849 470.322 272.849 470.322 272.849 470.321C272.85 470.32 272.852 470.319 272.857 470.316L271.891 468.565ZM271.089 469.371C270.903 469.715 270.828 470.088 270.828 470.458H272.828C272.828 470.36 272.847 470.325 272.848 470.321L271.089 469.371ZM271.828 469.458H271.119V471.458H271.828V469.458ZM272.119 470.458C272.119 470.257 272.164 470.126 272.222 470.031L270.515 468.989C270.241 469.437 270.119 469.939 270.119 470.458H272.119ZM272.222 470.031C272.293 469.914 272.385 469.826 272.516 469.757L271.577 467.991C271.136 468.225 270.776 468.561 270.515 468.989L272.222 470.031ZM272.513 469.758C272.644 469.689 272.804 469.646 273.016 469.646V467.646C272.512 467.646 272.026 467.754 271.58 467.989L272.513 469.758ZM273.016 469.646C273.231 469.646 273.381 469.69 273.493 469.751L274.453 467.996C274.009 467.753 273.52 467.646 273.016 467.646V469.646ZM273.493 469.751C273.626 469.823 273.712 469.909 273.774 470.011L275.48 468.967C275.226 468.552 274.877 468.228 274.453 467.996L273.493 469.751ZM273.774 470.011C273.832 470.105 273.864 470.21 273.864 470.35H275.864C275.864 469.858 275.739 469.389 275.48 468.967L273.774 470.011ZM273.864 470.35C273.864 470.452 273.846 470.553 273.806 470.658L275.676 471.368C275.8 471.041 275.864 470.7 275.864 470.35H273.864ZM273.805 470.663C273.77 470.755 273.689 470.908 273.524 471.126L275.118 472.334C275.353 472.024 275.552 471.699 275.678 471.363L273.805 470.663ZM273.523 471.127C273.354 471.351 273.104 471.644 272.764 472.009L274.228 473.372C274.592 472.981 274.892 472.633 275.119 472.333L273.523 471.127ZM272.765 472.008L271.385 473.484L272.846 474.85L274.226 473.373L272.765 472.008ZM271.116 474.167V474.215H273.116V474.167H271.116ZM272.116 475.215H274.972V473.215H272.116V475.215ZM273.972 474.215V474.875H275.972V474.215H273.972ZM274.972 473.875H271.095V475.875H274.972V473.875Z" fill="#778690"/>
<path d="M228.373 432.503L324.696 227.097" stroke="#778690" stroke-width="2" stroke-miterlimit="10"/>
<path d="M243.684 463.106L368.078 219.442" stroke="#778690" stroke-width="2" stroke-miterlimit="10"/>
<path d="M324.697 227.097L538.386 417.192" stroke="#778690" stroke-width="2" stroke-miterlimit="10"/>
<path d="M524.351 447.795L243.684 463.106" stroke="#778690" stroke-width="2" stroke-miterlimit="10"/>
<path d="M509.04 277.487L243.684 463.106" stroke="#778690" stroke-width="2" stroke-miterlimit="10"/>
<path d="M456.098 234.125L243.684 463.106" stroke="#778690" stroke-width="2" stroke-miterlimit="10"/>
<path d="M380.19 218.166L524.351 452.27" stroke="#778690" stroke-width="2" stroke-miterlimit="10"/>
<path d="M380.504 218.499L244.018 463.44" stroke="#778690" stroke-width="2" stroke-miterlimit="10"/>
<path d="M450.033 236.362L524.665 452.585" stroke="#778690" stroke-width="2" stroke-miterlimit="10"/>
<path d="M503.622 281.001L524.665 452.585" stroke="#778690" stroke-width="2" stroke-miterlimit="10"/>
<path d="M368.392 219.775L450.033 236.362" stroke="#778690" stroke-width="2" stroke-miterlimit="10"/>
</g>
<defs>
<clipPath id="clip0_6_827">
<rect width="754" height="754" fill="white"/>
</clipPath>
</defs>
</svg>
